<?xml version="1.0" encoding="utf-8"?>
<!-- Generator: Adobe Illustrator 18.1.1, SVG Export Plug-In . SVG Version: 6.00 Build 0)  -->
<svg version="1.1" xmlns="http://www.w3.org/2000/svg" xmlns:xlink="http://www.w3.org/1999/xlink" x="0px" y="0px"
	 viewBox="0 0 50 50" enable-background="new 0 0 50 50" xml:space="preserve">
<g id="Layer_2">
	
		<image overflow="visible" width="336" height="450" xlink:href="../../../Desktop/flower-bouquet-26351839.jpg"  transform="matrix(8.965774e-02 0 0 8.965774e-02 50.875 3.3936)">
	</image>
</g>
<g id="Layer_1">
	<g>
		<g id="flower_4_">
			<g>
				<path fill="#B06CA8" d="M30.1,13.3c4.5-0.6,3.2-6.2,2.8-7.7c0-0.2-0.3-0.2-0.4-0.1c-1.1,1.6-1.1,6.2-1.1,6.2
					c1.6-4.2-0.6-6.7-1.1-7.2c0-0.1-0.1-0.1-0.2,0c-1.5,0.8-1.9,6.5-1.9,6.5c0.5-1.1,0.5-3.8,0.4-5.2c0-0.2-0.3-0.3-0.4-0.1
					c-2.4,6.7,0.8,7.5,0.8,7.5C29.5,13.7,30.1,13.4,30.1,13.3z"/>
				<path fill="#C392C0" d="M30,15C30,15,30,15,30,15c5.1-0.7,3.4-7.2,3-8.5c0-0.1-0.2-0.1-0.3-0.1c-1.3,1.6-1.3,6.9-1.3,6.9
					c1.3-3.2-0.8-7.4-1.2-7.9c0,0-0.1,0-0.1,0c-1.7,0.7-2.1,7.1-2.1,7.1c0.6-1.3,0.5-4.6,0.4-6c0-0.2-0.2-0.2-0.3,0
					c-2.8,7.6,0.7,8.4,0.7,8.4C29.3,15.3,29.9,15,30,15z"/>
			</g>
			<path fill="#4E7C45" d="M27.7,45.4c-1.7-7-1.3-13.3-1.3-13.3c0-9.3,2.8-15.5,3.5-16.9c0.1-0.2,0-0.3-0.2-0.3l-0.4,0
				c-0.1,0-0.2,0-0.2,0.1c-1.8,3-2.8,9.5-2.8,9.5c-2.2,8.1,0.6,20.9,0.6,20.9C27.1,46.6,27.7,45.4,27.7,45.4z"/>
			<path fill="#649150" d="M26.5,30.1c-0.1-0.7,2-7.5,2-7.5c3.3-5.2,2.5-7.8,2.5-7.8c0.1,3.1-2.9,6.9-2.9,6.9
				c-2.6,3.9-2.6,8.4-2.6,8.4L26.5,30.1z"/>
			<path fill="#4E7C45" d="M25.5,30c0.3-0.7-0.7-7.7-0.7-7.7c-2.4-5.6-1.2-8.1-1.2-8.1c-0.6,3.1,1.7,7.2,1.7,7.2
				c1.9,4.3,1.2,8.7,1.2,8.7L25.5,30z"/>
		</g>
		<g>
			<path fill="#B06CA8" d="M28.3,13.3c4.4-1,2.5-6.5,2-7.9c-0.1-0.2-0.3-0.2-0.4,0c-0.9,1.7-0.5,6.3-0.5,6.3c1.1-4.4-1.3-6.6-1.8-7
				c-0.1-0.1-0.2,0-0.2,0c-1.4,0.9-1.2,6.7-1.2,6.7c0.4-1.2,0.1-3.9-0.1-5.3c0-0.2-0.3-0.2-0.4,0c-1.7,6.9,1.5,7.3,1.5,7.3
				C27.8,13.8,28.3,13.3,28.3,13.3z"/>
			<path fill="#B06CA8" d="M28.4,14.9C28.4,14.9,28.4,14.9,28.4,14.9c5-1.2,2.6-7.5,2.1-8.8c0-0.1-0.2-0.1-0.3,0
				c-1.1,1.7-0.6,7-0.6,7c1-3.3-1.5-7.3-2-7.7c0,0-0.1,0-0.2,0c-1.6,0.8-1.4,7.3-1.4,7.3c0.5-1.4,0-4.6-0.2-6c0-0.2-0.3-0.2-0.3,0
				c-2,7.8,1.6,8.3,1.6,8.3C27.8,15.3,28.3,15,28.4,14.9z"/>
			<path fill="#4E7C45" d="M29.2,45.4c-2.4-6.8-2.6-13.1-2.6-13.1c-0.9-9.3,1.2-15.7,1.8-17.2c0.1-0.2-0.1-0.3-0.2-0.3l-0.4,0.1
				c-0.1,0-0.2,0.1-0.2,0.1c-1.5,3.1-1.9,9.8-1.9,9.8c-1.4,8.3,2.7,20.7,2.7,20.7C28.7,46.7,29.2,45.4,29.2,45.4z"/>
			<path fill="#649150" d="M26.4,30.3c-0.2-0.7,1.2-7.6,1.2-7.6c2.8-5.5,1.7-8.1,1.7-8.1c0.4,3.1-2.2,7.1-2.2,7.1
				c-2.2,4.2-1.8,8.6-1.8,8.6L26.4,30.3z"/>
			<path fill="#4E7C45" d="M25.4,30.4c0.2-0.7-1.5-7.6-1.5-7.6c-3-5.3-2.1-8-2.1-8c-0.3,3.1,2.5,7,2.5,7c2.4,4.1,2.1,8.5,2.1,8.5
				L25.4,30.4z"/>
		</g>
		<g id="flower">
			<g>
				<path fill="#B06CA8" d="M19.7,13.6c0,0,3-1.2-0.2-7.5c-0.1-0.2-0.4-0.1-0.4,0.1c0.1,1.4,0.4,4.1,1.1,5.1c0,0-1.1-5.7-2.7-6.2
					c-0.1,0-0.2,0-0.2,0.1c-0.4,0.5-2.3,3.3-0.2,7.3c0,0-0.6-4.6-1.9-6c-0.1-0.1-0.3-0.1-0.3,0.1c-0.2,1.5-0.8,7.3,3.7,7.3
					C18.6,13.9,19.1,14.2,19.7,13.6z"/>
				<path fill="#C392C0" d="M20.1,15.2c0,0,3.4-1.3-0.4-8.5c-0.1-0.1-0.3-0.1-0.3,0.1c0.1,1.4,0.4,4.7,1.2,5.9c0,0-1.3-6.4-3-6.8
					c-0.1,0-0.1,0-0.1,0.1c-0.4,0.5-1.9,5-0.2,8c0,0-0.7-5.2-2.2-6.6c-0.1-0.1-0.2,0-0.2,0.1c-0.2,1.4-1,8,4,8.1c0,0,0,0,0.1,0
					C19,15.5,19.5,15.7,20.1,15.2z"/>
			</g>
			<path fill="#4E7C45" d="M25.9,45.2c0,0,1.1-13.1-2.1-20.8c0,0-1.9-6.4-4.1-9.1c0-0.1-0.1-0.1-0.2-0.1l-0.4,0
				c-0.2,0-0.3,0.2-0.2,0.3c0.9,1.4,4.4,7.1,5.7,16.3c0,0,1.3,6.2,0.5,13.3C25.1,45.3,25.9,46.4,25.9,45.2z"/>
			<path fill="#649150" d="M25.3,29.8c0,0-0.6-4.4-3.7-8c0,0-3.4-3.3-3.8-6.4c0,0-0.4,2.8,3.5,7.4c0,0,3,6.4,2.9,7.2L25.3,29.8z"/>
			<path fill="#4E7C45" d="M24.3,30c0,0-1.3-4.3,0.1-8.8c0,0,1.8-4.4,0.8-7.4c0,0,1.5,2.3-0.2,8.2c0,0-0.1,7.1,0.3,7.7L24.3,30z"/>
		</g>
		<g>
			<path fill="#B06CA8" d="M22.2,12.5c0,0,3.2-0.7,0.8-7.4c-0.1-0.2-0.4-0.2-0.4,0c-0.1,1.4-0.2,4.1,0.4,5.2c0,0-0.3-5.8-1.8-6.5
				c-0.1,0-0.2,0-0.2,0c-0.5,0.5-2.7,2.9-1.2,7.2c0,0,0-4.6-1.1-6.2c-0.1-0.1-0.3-0.1-0.4,0.1c-0.4,1.5-1.8,7.1,2.7,7.7
				C21,12.6,21.6,13,22.2,12.5z"/>
			<path fill="#B06CA8" d="M22.3,14.1c0,0,3.5-0.8,0.8-8.4c-0.1-0.1-0.3-0.1-0.3,0c-0.1,1.4-0.3,4.7,0.4,6c0,0-0.4-6.5-2.1-7.2
				c-0.1,0-0.1,0-0.1,0c-0.5,0.4-2.6,4.7-1.3,7.9c0,0,0-5.3-1.2-6.9c-0.1-0.1-0.2-0.1-0.3,0.1c-0.4,1.3-2.1,7.8,2.9,8.5
				c0,0,0,0,0.1,0C21.2,14.2,21.8,14.5,22.3,14.1z"/>
			<path fill="#4E7C45" d="M24,44.7c0,0,2.9-12.8,0.8-20.9c0,0-1-6.6-2.8-9.6c0-0.1-0.1-0.1-0.2-0.1l-0.4,0c-0.2,0-0.3,0.2-0.2,0.3
				c0.7,1.5,3.4,7.7,3.4,17c0,0,0.4,6.3-1.4,13.3C23.2,44.6,23.8,45.8,24,44.7z"/>
			<path fill="#649150" d="M25.5,29.3c0,0,0-4.5-2.6-8.4c0,0-2.9-3.7-2.8-6.9c0,0-0.8,2.7,2.5,7.9c0,0,2,6.8,1.9,7.5L25.5,29.3z"/>
			<path fill="#4E7C45" d="M24.5,29.4c0,0-0.7-4.4,1.3-8.7c0,0,2.3-4.1,1.8-7.2c0,0,1.2,2.5-1.3,8.1c0,0-1,7-0.8,7.7L24.5,29.4z"/>
		</g>
		<g id="flower_3_">
			<g>
				<path fill="#B06CA8" d="M25.6,13c4.3-1.3,2.1-6.7,1.4-8c-0.1-0.1-0.3-0.1-0.4,0c-0.8,1.7-0.1,6.3-0.1,6.3
					c0.8-4.4-1.7-6.5-2.3-6.9c-0.1,0-0.2,0-0.2,0c-1.4,1-0.8,6.8-0.8,6.8c0.4-1.2-0.2-3.9-0.5-5.2c0-0.2-0.3-0.2-0.4,0
					c-1.2,7,2,7.2,2,7.2C25.2,13.5,25.6,13,25.6,13z"/>
				<path fill="#C392C0" d="M25.8,14.6C25.8,14.6,25.8,14.6,25.8,14.6c4.9-1.6,2.1-7.7,1.5-8.9c-0.1-0.1-0.2-0.1-0.3,0
					c-1,1.8-0.1,7-0.1,7c0.7-3.4-2-7.2-2.5-7.6c0,0-0.1,0-0.2,0c-1.6,0.9-0.9,7.4-0.9,7.4c0.4-1.4-0.3-4.6-0.6-6
					c0-0.2-0.3-0.1-0.3,0c-1.5,7.9,2.1,8.2,2.1,8.2C25.2,15.1,25.7,14.7,25.8,14.6z"/>
			</g>
			<path fill="#4E7C45" d="M28.6,45c-2.9-6.6-3.5-12.9-3.5-12.9c-1.5-9.2,0.2-15.7,0.6-17.3c0-0.2-0.1-0.3-0.3-0.3l-0.4,0.1
				c-0.1,0-0.1,0.1-0.2,0.1c-1.3,3.2-1.2,9.9-1.2,9.9c-0.8,8.4,4.1,20.5,4.1,20.5C28.2,46.3,28.6,45,28.6,45z"/>
			<path fill="#649150" d="M24.9,30.1c-0.3-0.7,0.7-7.7,0.7-7.7c2.4-5.6,1.2-8.1,1.2-8.1c0.6,3.1-1.7,7.2-1.7,7.2
				c-1.9,4.3-1.2,8.7-1.2,8.7L24.9,30.1z"/>
			<path fill="#4E7C45" d="M23.8,30.2c0.1-0.7-2-7.5-2-7.5c-3.3-5.1-2.6-7.8-2.6-7.8c-0.1,3.1,2.9,6.9,2.9,6.9
				c2.6,3.9,2.7,8.4,2.7,8.4L23.8,30.2z"/>
		</g>
	</g>
	<g>
		<path fill="#57A8B5" d="M25.1,30c0,0-2.1-1.1-2.6-0.9c0,0-0.6,1.6-0.3,1.9c0,0,0.9,0.7,3-0.3c0,0-1.8,0.6-1.1,2.3l0.5,5.9l1.8,0.7
			c0,0,0-6.7-1-8.6L25.1,30z"/>
		<path fill="#57A8B5" d="M25.2,30.1c0,0,1-2.1,1.5-2.3c0,0,1.4,0.9,1.4,1.3c0,0-0.3,1.1-2.5,1.6c0,0,1.8-0.6,2.3,1.2l3.2,4.9
			l-1,1.7c0,0-4.1-5.4-4.5-7.4L25.2,30.1z"/>
		<path fill="#65BDD1" d="M25.2,30c0,0-2.1-1.1-2.6-0.9c0,0-0.6,1.6-0.3,1.9c0,0,0.9,0.7,3-0.3c0,0-1.8,0.6-1.1,2.3l0.5,5.9l1.8,0.7
			c0,0,0-6.7-1-8.6L25.2,30z"/>
		<path fill="#65BDD1" d="M25.1,30.1c0,0,1-2.1,1.5-2.3c0,0,1.4,0.9,1.4,1.3c0,0-0.3,1.1-2.5,1.6c0,0,1.8-0.6,2.3,1.2l3.2,4.9
			l-1,1.7c0,0-4.1-5.4-4.5-7.4L25.1,30.1z"/>
		<path fill="#57A8B5" d="M24.7,30.2c0,0,0.4-0.4,0.8-0.2c0,0,0.2,0.3,0.2,0.5c0,0-0.5,0.4-0.8,0.3C25,30.8,24.7,30.4,24.7,30.2z"/>
	</g>
</g>
</svg>
