<?xml version="1.0" encoding="utf-8"?>
<!-- Generator: Adobe Illustrator 18.1.1, SVG Export Plug-In . SVG Version: 6.00 Build 0)  -->
<svg version="1.1" id="Layer_1" xmlns="http://www.w3.org/2000/svg" xmlns:xlink="http://www.w3.org/1999/xlink" x="0px" y="0px"
	 viewBox="0 137.9 800 476.3" enable-background="new 0 137.9 800 476.3" xml:space="preserve">
<g id="tray">
	<rect id="tray_bottom" x="30.1" y="169.5" fill="#E1E2C7" width="747.5" height="413.8"/>
	<path fill="#AED9D2" d="M0,137.9v476.3h800V137.9H0z M23.2,463.9H12.5V286.4h10.7V463.9z M765.9,560.3l-17,17H51.4L35,560.9V190.1
		l18-14.9h693.8l19,14.9v370.1H765.9z M788.3,463.9h-10.7V286.4h10.7V463.9z"/>
</g>
<g id="small_plate">
	<circle fill="#F8F7F7" cx="118.7" cy="450.2" r="63.6"/>
	<path fill="#D6D2D2" d="M71.8,453.1c-1.6-13.7,1.6-31.8,24.7-43c1.3-0.6,2.3,1.2,1.2,2c-10.4,7.3-23.3,20.4-23.6,40.8
		C74.2,454.5,71.9,454.6,71.8,453.1z"/>
</g>
<g id="coffee">
	<path fill="#341F0E" d="M716.9,304.9c0,24.9-20.6,45.2-46,45.2c-11.9,0-22.7-6.3-30.8-13.6c-9.3-8.3-15.1-18.3-15.1-31.6
		c0-24.9,20.6-45.2,46-45.2C696.3,259.7,716.9,280,716.9,304.9z"/>
	<g>
		<path fill="#7D273C" d="M645.5,265.6c-23,14.2-29.9,46.4-14.5,68.7c14.3,20.8,43.8,27,65.2,13.8c22.7-14,29.9-43.9,15.9-66.6
			C698.1,258.6,668.2,251.5,645.5,265.6z M693.7,342.2c-20.1,12.4-48.4,5.4-61.2-15.3c-11.1-18.2-5.4-44.1,14-55.9
			c24.4-15,53.7-5.5,63.2,14.1C716.6,299.4,717.5,327.6,693.7,342.2z"/>
		<path fill="#7D273C" d="M714,328.7c0,0,7.7,4.1,6.5,6.2c0,0-1.4,9.8-12.4,15c0,0-2.4,1.7-7.3-5.3L714,328.7z"/>
	</g>
</g>
<g id="plate">
	<circle fill="#F7F7F7" cx="394.1" cy="404.1" r="159.1"/>
	<g>
		<path fill="#D6D2D2" d="M519.2,433.5c0.5,28.7-8.8,78.5-78.7,87.6c-1.5,0.2-2-2-0.5-2.4c25.2-7.6,71-29,76.7-85.3
			C516.9,431.9,519.2,432,519.2,433.5z"/>
		<path fill="#D6D2D2" d="M271.6,395.5c-7.3-27.9-9.7-78.4,56.1-103.6c1.5-0.5,2.4,1.5,1.1,2.2c-22.8,13.4-62.4,44.8-54.7,100.8
			C274.2,396.5,271.9,396.9,271.6,395.5z"/>
	</g>
</g>
<g id="pancakes">
	<g>
		<path fill="#E2C1A6" d="M408.4,303.4c0,0-25.6-8-49.6,13.3c-2.8,2.5-6.4,4.5-10.2,5.6c-12.8,3.6-41.8,15.8-37.2,52.9
			c0.3,2.7,0.2,5.5-0.4,8.2c-2.7,12.7-7.3,53.1,44,72.5c1.4,0.5,2.8,1.2,4.2,1.9c9,5.4,54.1,27.8,104.2-18.1c0,0,17.6-14.4,24-32.2
			c1.8-5,1.7-10.5,0-15.7c-2.5-7.3-6.2-18.9-5.3-22.6C481.8,369.1,490,322.5,408.4,303.4z"/>
		<path fill="#AE8657" d="M410.1,294.5c0,0-25.2-8.3-49,13.8c-2.8,2.6-6.4,4.6-10.1,5.8c-12.7,3.7-41.2,16.4-36.8,55
			c0.3,2.8,0.2,5.8-0.4,8.5c-2.7,13.3-7.2,55.2,43.4,75.4c1.4,0.5,2.7,1.2,4.1,2c8.9,5.6,53.4,28.8,103-18.8
			c0,0,17.4-14.9,23.7-33.4c1.8-5.3,1.7-10.9,0-16.3c-2.4-7.6-6.1-19.8-5.2-23.6C482.7,362.7,490.7,314.3,410.1,294.5z"/>
		<path fill="#E2C1A6" d="M393.5,462.6c0,0,24,8.2,45.2-15.7c0.1-0.1,0.1-0.1,0.2-0.2c2.8-2.2,69.8-55.4-2.1-124.1
			c0,0-41.4-31.3-88.8,15.4c0,0-15.4,13.7-20.5,30.4c-1.3,4.2-1.2,8.6,0.1,12.7c2.1,6.6,5.4,17.8,4.5,21.2
			C332.2,402.3,325.3,444.9,393.5,462.6z"/>
		<path fill="#BC9262" d="M396.9,461.5c0,0,24.3,8.3,45.6-15.8c0.1-0.1,0.1-0.1,0.2-0.2c2.8-2.2,70.6-55.7-2.1-124.8
			c0,0-41.9-31.6-89.6,15.5c0,0-15.5,13.8-20.7,30.5c-1.3,4.2-1.2,8.6,0.1,12.8c2.1,6.6,5.4,17.9,4.6,21.5
			C335,400.9,328,443.7,396.9,461.5z"/>
	</g>
	<path fill="#E2C1A6" d="M337.9,403.3c0,0,34.9,75.8,84.7,44.4c0,0,44.9-4.2,40.5-56.8c0,0,8.5-46.2-45.9-69.7c0,0-8.6-4.3-19-6.1
		c-9.5-1.6-19,1.4-26.3,7.8c-4,3.5-8.5,7.2-10.6,7.5C361.3,330.2,325.5,339.3,337.9,403.3z"/>
	<path fill="#CB9F65" d="M339.8,402c0,0,34.3,74.6,83.3,43.8c0,0,44.2-4.1,39.9-55.9c0,0,8.4-45.4-45.1-68.7c0,0-8.5-4.3-18.7-6
		c-9.3-1.6-18.8,1.4-25.9,7.7c-4,3.4-8.3,7-10.4,7.4C362.9,329.9,327.7,338.9,339.8,402z"/>
</g>
<g id="syrup_love">
	<path opacity="0.5" fill="#632D15" enable-background="new    " d="M379.2,373.3c-1.7-2-5-6.9-1.3-11c1.1-1.2,2.7-1.6,4.4-1.3
		c3.9,0.8,11.6,1.3,13.4-7.5c0.1-0.5,0.3-0.9,0.5-1.4c2.1-3.7,13.1-20.4,26.4-6.5c0.6,0.6,1.4,1.1,2.1,1.4
		c3.6,1.1,12.9,2.4,14.4-10.7c0.1-0.8,0.4-1.7,0.9-2.4c1.9-2.4,7.2-6.9,14.9,3.3c1.2,1.6,3.2,2.2,5,1.7c5.3-1.6,15.5-5.5,20.6-13.5
		c2-3.2,6.6-2.9,8.3,0.3c1.2,2.3,2.4,6,3.3,11.4c0.2,1.5,1.3,2.8,2.6,3.5c6,2.7,21.6,11,24,22.5c0.1,0.6,0.4,1.3,0.7,1.8
		c2.3,3.3,10.8,15.6,13.3,23.2c0.6,2.1-0.3,4.3-2.2,5.5c-2.8,1.8-6.7,5.6-3.2,12.1c1.2,2.2,0.6,5-1.5,6.4
		c-8.8,5.8-28.9,20.9-34.5,41.5c-0.4,1.5-0.2,3.2,0.8,4.3c0.9,1.1,1.7,3.7,0.3,10c-2.5,11.4,2.9,46-15.8,45c0,0-14.1,2.1-16.4-21.1
		c0-0.2-0.1-0.4-0.1-0.6c-0.6-2.5-5.2-20.6-1.4-28.6c1.1-2.2,4.1-3.3,6.3-2.1c3.2,1.6,6.9,6.5,3.7,20.6c0,0.2-0.1,0.4-0.1,0.6
		c-0.2,2.2-0.9,15.7,8.6,15.1c0,0,6.9,2,4.4-23.8c0-0.1,0-0.1,0-0.2c-0.2-1.5-3.1-22,4.7-30c0.5-0.5,0.9-1.2,1.2-1.9
		c1.1-3.4,3.9-13.6-0.4-17.9c-0.5-0.5-0.9-1.1-1.2-1.7c-0.7-2-1.5-6.5,4.1-10.8c0.8-0.7,1.5-1.7,1.7-2.7c1.1-6.1,3.1-24.7-11.7-25.7
		c-0.8,0-1.7-0.3-2.4-0.8c-2.2-1.6-7.6-4.9-10.1-2.3c-1.5,1.4-3.6,1.8-5.5,0.9c-1.3-0.6-2.6-0.5-4,1.4c-1.4,1.9-3.9,2.3-6,1.4
		c-0.7-0.3-1.5-0.4-2.3-0.3c-2.2,0.3-4.5-0.5-5.4-2.5c-0.8-2-2.6-2.7-6.2,0.9c-7.7,8-9.2,10.3-5.4,16.4c0.3,0.4,0.6,0.8,1.1,1.2
		c2,1.6,8.3,7.6,2.6,19c-0.4,0.9-0.5,1.9-0.3,2.9c0.5,2.7,0.3,9.2-10.8,13.1c-1.4,0.4-2.4,1.5-2.8,2.8c-1.8,5.3-7.2,18.4-16.2,23.5
		c-1.3,0.6-2.7,0.8-4.1,0.3c-2.9-1.3-8-5.6-8.3-20.2c-0.1-2.7-2.3-4.9-5-4.8c-2.7,0.1-6.3,1.2-9.7,4.9c0,0-4.4,4.3-8.9,4.7
		c-1.5,0.1-2.8,0.8-3.7,2.1c-1.1,1.4-2.9,2.7-6.5,2c-1.8-0.3-3.6,0.3-4.8,1.8c-1.6,2.2-4.4,4.9-8.4,4.6c-2.2-0.2-4.7,1.3-5.3,3.5
		c-0.7,2.7-2.2,5.9-5.4,6.7c-1.4,0.4-2.4,1.6-2.8,2.9c-1.2,3.4-1.8,6.8-1.2,10.3c0.7,4.4-2.1,8.5-2,12.9c0,4,1.8,7.4,5.6,8.9
		c0.5,0.2,1.1,0.3,1.6,0.3c4.1,0.1,8.2,0.3,12.2,0.9c1.9,0.3,4.1,0.6,5.9,1.7c2.6,1.5,4.3,5,1.8,7.2c-2.6,2.3-6.9,3.1-10.2,3.9
		c-0.2,0-0.3,0.1-0.5,0.1c-2.1,0.2-16.1,1.5-22.4-1.6c-2-0.9-2.9-3.7-2.1-5.9c0.8-2.1,1.1-4.5,1.2-6.8c0.1-4.7-1.3-9-1.7-13.7
		c-0.2-2.2,0.8-3.9,1.8-5.8c0.8-1.9,1.7-3.7,2.4-5.8c1.2-3.3,2.8-7.9,1.4-11.4c-0.9-2.1-0.3-4.7,1.7-6c3.6-2.3,7.7-5.5,7.9-7.6
		c0.4-3.5,5-11,10.6-14.4c1.3-0.7,2.1-1.9,2.3-3.4c0.7-5.5,2-18.6-2.7-22.2c-1.4-1.1-2.3-2.5-2.2-4.4c0.1-2.7-7.9-8.4-15.1-12.6
		c-3.7-2.1-3.7-7.6,0.1-9.6c3.2-1.7,6.6-2.8,8.9-1.8c0,0,15.4,6.3,18.8,4c0.8-0.5,1.8-0.7,2.8-0.7c5.4-0.2,18.4-1.5,20.1-7.7
		C380.5,375.9,380.1,374.3,379.2,373.3z"/>
	<path opacity="0.5" fill="#632D15" enable-background="new    " d="M386.1,493.2c0,0-2.1-22.9-16-20.1c0,0-17.7,1.6-7,34.9
		c1.7,5.5,8,7.9,12.9,5.2C381.3,510,386.6,504.2,386.1,493.2z M371.7,500.1c-0.2,0-0.4,0.1-0.7,0.1c-2.5-0.1-3.5-3.2-3.3-5.3
		c0.3-4,5.3-5.9,7.9-3.1C377.9,494.4,374.8,499.4,371.7,500.1z"/>
	<path opacity="0.5" fill="#632D15" enable-background="new    " d="M388.5,475c0,0,6.6-6.2,9.2,14.8c0.3,2.2,3.3,2.5,4.2,0.5
		c1.3-3.1,2.4-6.6,2.9-9.5c0.6-3.3,4.8-8.2,8.6-8.7c4.3-0.5,0.9,8.1,0.3,9.6c-0.3,0.7-0.5,1.6-0.8,2.3c-1.4,3.2-2.5,6.6-3.4,10
		c-0.6,2.3-0.7,4.7-1.1,7.2c-0.6,4.2-4,8.1-6.5,11.1c-0.9,1.3-2.1,3.2-3.6,3.9c-2.8,1.2-3.7-4.5-4.3-6.3c-1.5-4.4-2.9-8.8-4.2-13.4
		c-1.2-4.3-2.2-8.6-2.6-13.1C387,481.1,386.5,477.1,388.5,475z"/>
	<path opacity="0.5" fill="#632D15" enable-background="new    " d="M423.6,473.1c0.4-0.1,0.7-0.2,1.2-0.3c2.3-0.5,10-1.8,11.4,0.9
		c0.3,0.7,0,1.6-0.5,2.1c-1.4,1.6-3.4,2-5.5,2.3c-1.7,0.2-7.3,1.9-3.5,4.1c2.9,1.7,7.6,0.3,10.1,2.6c2.3,2.1-2.8,4-4.4,4.2
		c-3.9,0.5-11.4-0.6-11,5.5c0.1,2.7,0.4,5.3,3.7,5.6c4.5,0.4,7.6-2.9,10.9-5.4c2.8-2,5.5-2.6,5.6,1.8c0.2,14.3,0.2,14.3-12.7,15
		c-0.1,0-0.3,0-0.4,0c-1.5,0.2-10.6,1.5-11.8-8.8c0,0-1.5-14.6,0.1-23.1C417.6,475.9,420.3,474,423.6,473.1z"/>
	<path opacity="0.5" fill="#632D15" enable-background="new    " d="M293.6,453c-0.3,2.1-0.3,5,0.6,7c1.2,2.4,4.7,2.6,6.3,0.4
		c2.8-4,7-11.6-3.4-10.7C295.3,449.8,293.8,451.2,293.6,453z"/>
	<path opacity="0.5" fill="#632D15" enable-background="new    " d="M295,470.3c-0.4,2.9-0.6,7,1.1,9.9c2,3.5,8.3,3.7,11.1,0.5
		c5-5.6,12.4-16.2-6-15.1C298,465.8,295.5,467.8,295,470.3z"/>
	<path fill="#B69D88" d="M324.6,484.2c-0.6,0.4-1.2,0.9-1.4,1.4c-1.4,2.5-0.2,5.3,0.3,7.8c0.6,2.8,0.9,5.9,0.9,8.8
		c0,1.4-0.1,2.7-0.4,4.1c-0.2,0.8-0.8,1.8-0.5,2.8c0.2,0.8,1.2,1.8,2.1,1.7c1.1-0.2,1.4-2.6,1.3-3.4c-0.7-3.6-1.3-7.3-1.7-10.9
		c-0.2-2-0.5-4.1-0.5-6.1c0-0.9,0.1-1.9,0.4-2.7c0.3-0.8,1.8-2.1,1.4-3.1C326.2,483.6,325.4,483.7,324.6,484.2z"/>
	<path fill="#B69D88" d="M362.2,483.8c-0.8,0.4-1.2,2.2-1.3,3.1c-0.3,2.1,0.2,4.2,0.4,6.3c0.3,2.6,0.4,5.4,1.2,8
		c0.4,1.6,0.9,3.2,1.6,4.7c0.3,0.7,0.6,1.5,1.1,2.2c0.2,0.4,0.6,0.7,1.2,0.7c0.5-0.1,0.5-0.7,0.5-1.2c-0.1-1.5-0.8-2.8-1.5-4.3
		c-1.8-4-2.2-8.6-2.4-12.9c-0.1-1.4-0.1-2.8,0.1-4.3c0.1-0.6,0.6-1.5,0.4-2C363.4,483.6,362.8,483.6,362.2,483.8z"/>
	<path fill="#B69D88" d="M389.4,483.7c-0.1,0.4,0.1,0.8,0.1,1.3c0.1,0.5,0.2,1.1,0.3,1.6c0.2,1.2,0.4,2.3,0.7,3.6
		c0.5,2.3,0.9,4.8,1.6,7.2c0.2,0.9,0.5,1.9,0.7,2.7c0.5,1.9,1.2,4,2,5.8c0.3,0.6,0.6,4.5,1.5,4.3c1.9-0.3,0.8-3.6,0.4-4.7
		c-0.4-1.2-0.8-2.2-1.4-3.4c-0.8-2.2-1.5-4.6-2.1-6.8c-0.5-1.8-1.1-3.6-1.4-5.5c-0.2-0.9-0.3-2-0.4-3.1c-0.1-0.9,0.1-2.4-0.5-3.2
		c-0.5-0.6-1.3-0.7-1.6,0.1C389.4,483.6,389.4,483.6,389.4,483.7z"/>
	<path fill="#B69D88" d="M418.9,479.3C418.9,479.4,418.9,479.4,418.9,479.3c-0.5,0.6-0.8,1.1-1.1,1.8c-0.5,2.5-0.3,5.5-0.2,8
		c0.1,4.9,0.2,10,1.1,14.9c0.2,0.9,0.8,2.3,1.7,2.9c0.8,0.6,1.2-0.9,1.1-1.5s-0.3-0.9-0.4-1.5c-0.5-1.8-0.8-3.6-1.2-5.5
		c-0.9-5.7-1.1-11.6,0.1-17.1c0.1-0.7,0.5-1.4,0.2-2C419.9,478.8,419.4,478.9,418.9,479.3z"/>
	<path fill="#B69D88" d="M460.1,467.7c-0.4,1.7-0.6,3.5-0.7,5.4c-0.1,4.4,0.6,8.8,1.8,13c0.2,0.8,0.4,1.6,0.7,2.4
		c0.1,0.4,0.3,0.8,0.4,1.3c0.6,2,0.6,4.2,1.1,6.2c0.4,2.1,0.8,4.3,1.8,6.3c0.4,0.9,0.9,1.8,1.7,2.5c0.4,0.3,1.2,0.9,1.8,0.7
		c0.2-0.1,0.3-0.3,0.4-0.5c0.4-1.9-1.3-3.9-1.9-5.5c-0.4-1.2-0.7-2.4-1.1-3.7c-0.4-2-0.5-4.1-1.2-6c-0.7-2-1.4-4.2-1.9-6.3
		c-1.1-4.2-2-8.6-1.8-12.9c0-0.8,0.2-1.8,0.3-2.6c0.1-0.4-0.5-1.6-1.1-1.2c-0.1,0.1-0.2,0.3-0.3,0.5
		C460.2,467.4,460.2,467.6,460.1,467.7z"/>
	<path fill="#C1A58F" d="M494.3,345.8c0,0,16.3,5.6,18.8,17.8c0.2,1.2,0.8,2.2,1.7,2.9c3.1,2.9,10.1,10.1,12.2,16
		c0.8,2.3,0.1,5-1.9,6.5c-2.9,2.3-8.1,8-3.9,18c0.5,1.2,0.2,2.5-0.7,3.3c-1.4,0.9-1.7,1.1-3.3-1.2c-0.3-0.4-0.3-1.2-0.4-1.7
		c-0.1-3.1-2-11.7,3.7-17.9c1.7-1.8,4.8-3.2,2.9-6.7c-1.4-2.7-5.8-10.1-9.9-13c-1.4-0.9-2.4-2.4-2.5-4.2c-0.4-3.7-3.1-9.4-16.7-17.2
		C494.3,348.8,490.1,346.4,494.3,345.8z"/>
</g>
<g id="butter">
	<path fill="#D2B331" d="M392.1,370.4c0,0-15.9,17.8-12.1,29.3c0,0,10.7,6.4,15.3,5.8c0,0,15.9-13.9,15.3-21.2
		C410.6,384.1,405.5,371.7,392.1,370.4z"/>
	<path fill="#E9D582" d="M391.6,368c0,0-15.9,17.8-12.1,29.3c0,0,10.7,6.4,15.3,5.8c0,0,15.9-13.9,15.3-21.2
		C410.1,381.8,405,369.3,391.6,368z"/>
</g>
<g id="remote_1_">
	<g id="remote">
		<path fill="#777575" d="M621.7,513.8l22.1,22.1c0.8,0.8,2.3,0.8,3.3,0l111.3-111.3c0.8-0.8,0.8-2.3,0-3.3l-22.1-22.1
			c-0.8-0.8-2.3-0.8-3.3,0L621.7,510.5C620.9,511.5,620.9,512.9,621.7,513.8z"/>
		<g>
			<path fill="#9F9F9F" d="M623.4,511.9l20.4,20.4c0.8,0.8,2.3,0.8,3.3,0l109.5-109.5c0.8-0.8,0.8-2.3,0-3.3L736.2,399
				c-0.8-0.8-2.3-0.8-3.3,0L623.4,508.6C622.5,509.6,622.5,511.1,623.4,511.9z"/>
		</g>
	</g>
	<circle fill="#222121" cx="702.8" cy="441.4" r="5.7"/>
	<circle fill="#222121" cx="714.2" cy="452.8" r="5.7"/>
	<path fill="#222121" d="M729,412.9c-7.4,0-13.5,6-13.5,13.5c0,7.4,6,13.5,13.5,13.5s13.5-6,13.5-13.5
		C742.5,418.9,736.4,412.9,729,412.9z M729,433.4c-4,0-7.2-3.2-7.2-7.2s3.2-7.2,7.2-7.2s7.2,3.2,7.2,7.2
		C736.1,430.2,733,433.4,729,433.4z"/>
</g>
<g id="grapefruit">
	<circle fill="#F6F2BC" stroke="#EFE45E" stroke-width="1.8516" stroke-miterlimit="10" cx="123.3" cy="455.4" r="45"/>
	<path fill="#EC5650" stroke="#ECA697" stroke-width="0.8954" stroke-miterlimit="10" d="M150.3,481c0,0-3.2,18.2-19,11.7l-6.6-27.1
		c0,0,4.4-1.3,6.1-4.6L150.3,481z"/>
	<path fill="#EC5650" stroke="#ECA697" stroke-width="0.8954" stroke-miterlimit="10" d="M130.2,492.4c0,0-10.1,12.6-19.9-1.6
		l9.2-26.3c0,0,1.8,2.2,5,0.4L130.2,492.4z"/>
	<path fill="#EC5650" stroke="#ECA697" stroke-width="0.8954" stroke-miterlimit="10" d="M109.5,490.4c0,0-17.6,1.9-16.6-15.4
		l23.5-15.3c0,0,1.9,4.8,5.7,5.4L109.5,490.4z"/>
	<path fill="#EC5650" stroke="#ECA697" stroke-width="0.8954" stroke-miterlimit="10" d="M92.5,474.3c0,0-15.5-4.9-5.7-19l28-0.9
		c0,0-1.5,2.4,1.4,4.8L92.5,474.3z"/>
	<path fill="#EC5650" stroke="#ECA697" stroke-width="0.8954" stroke-miterlimit="10" d="M86.9,455.4c0,0-10.6-12.2,5-19.2
		l24.4,13.6c0,0-2.5,1.4-1.3,4.9L86.9,455.4z"/>
	<path fill="#EC5650" stroke="#ECA697" stroke-width="0.8954" stroke-miterlimit="10" d="M92.3,435.5c0,0-2.4-16,14.6-13.5
		l13.1,24.6c0,0-2.8-0.2-3.7,3.4L92.3,435.5z"/>
	<path fill="#EC5650" stroke="#ECA697" stroke-width="0.8954" stroke-miterlimit="10" d="M107.4,421.8c0,0,6.2-14.9,19.6-3.9
		l-1.6,27.9c0,0-2.3-1.7-4.9,0.9L107.4,421.8z"/>
	<path fill="#EC5650" stroke="#ECA697" stroke-width="0.8954" stroke-miterlimit="10" d="M127.2,417.9c0,0,13.4-9.2,18.5,7.3
		l-16.4,22.6c0,0-1.1-2.6-4.7-1.8L127.2,417.9z"/>
	<path fill="#EC5650" stroke="#ECA697" stroke-width="0.8954" stroke-miterlimit="10" d="M146.1,425.1c0,0,16.1-0.9,12.1,15.9
		l-25.8,10.7c0,0,0.5-2.8-3.1-4.1L146.1,425.1z"/>
	<path fill="#EC5650" stroke="#ECA697" stroke-width="0.8954" stroke-miterlimit="10" d="M158.3,441.1c0,0,14.3,7.5,2.2,19.8
		l-27.7-4c0,0,1.9-2.1-0.5-5L158.3,441.1z"/>
	<path fill="#EC5650" stroke="#ECA697" stroke-width="0.8954" stroke-miterlimit="10" d="M160.5,460.8c0,0,6.6,15.7-10.1,20.1
		l-21.8-17.5c0,0,4.6-2.8,4-6.5L160.5,460.8z"/>
	<ellipse fill="#F6F2BC" stroke="#EBA596" stroke-width="1.8516" stroke-miterlimit="10" cx="123.9" cy="455.4" rx="9" ry="9.6"/>
</g>
<g id="flower">
	<g>
		<path fill="#B06CA8" d="M150.4,235.4c0,0-7.5-24.7-59.3-2.9c-1.6,0.7-1.1,3,0.6,3c11.2,0,32.7-0.6,41.3-5.4
			c0,0-45.6,5.5-50.8,17.9c-0.2,0.6-0.1,1.4,0.3,1.7c4,3.6,24.6,19.9,57.4,5.6c0,0-36.6,2.2-48.5,11.5c-1,0.8-0.7,2.5,0.6,2.8
			c11.7,2.6,56.9,10.6,59.7-25.2C151.8,244.5,154.5,240,150.4,235.4z"/>
		<path fill="#C392C0" d="M162.9,233.4c0,0-8.3-27.7-67-2.2c-1.2,0.5-0.8,2.3,0.4,2.3c11.4,0.1,37.4-0.2,47.4-5.9
			c0,0-51,6.2-55.5,20c-0.1,0.4,0,0.8,0.3,1.2c3.6,3.4,38.2,18,62.8,6.3c0,0-41.9,2.4-53.7,13.3c-0.7,0.6-0.4,1.8,0.5,2
			c10.8,2.5,62.8,12.9,66.2-27c0-0.1,0.1-0.3,0.1-0.4C164.9,242.1,166.9,237.7,162.9,233.4z"/>
	</g>
	<path fill="#4E7C45" d="M404,204.9c0,0-102.7-16.7-165.8,4.3c0,0-51.3,11.1-74.2,26.6c-0.5,0.3-0.8,0.9-0.8,1.6v3.5
		c0,1.4,1.5,2.2,2.6,1.6c11.4-6.4,58.9-30.8,132.4-35.2c0,0,49.6-6.2,105.5,4.3C404,211.6,413.1,206.2,404,204.9z"/>
	<path fill="#649150" d="M281.7,200.5c0,0-35.4,2.2-65.3,24.5c0,0-28.2,25-53,25.9c0,0,21.6,4.8,60.9-23.5c0,0,52.6-19.6,58.4-18.8
		L281.7,200.5z"/>
	<path fill="#4E7C45" d="M282.8,208.4c0,0-34.7,7.5-69.5-6c0,0-33.9-16.5-58.1-10.5c0,0,19.5-10.4,64.9,6.2c0,0,55.9,4.6,61.3,2.3
		L282.8,208.4z"/>
</g>
<path fill="#9A9A9A" d="M835.7,309.8c0.1,0.1-0.8,2.2-0.9,2.4c-0.6,2.3-0.6,4.8-0.3,7.2c0.6,5.3,2.9,10.1,5.9,14.5
	c2.3,3.5,5,6.8,8.4,9.4c1.9,1.4,4,2.5,6.2,3.5c1.3,0.5,2.5,0.9,4,1.3c0.7,0.2,1.5,0.3,2.1,0.4c0.3,0.1,2,0.1,2.1,0.3
	C863,348.8,835.7,309.8,835.7,309.8z"/>
<path fill="#9A9A9A" d="M895.9,385l26.2,29.7c0,0,5.4,4.5,1.8,11.6"/>
<g id="fork">
	<path fill="#BDC0C0" d="M238.7,301.4l-1.5-0.2l-5.2,34.2c0,0-1.7,1.2-2.7-0.4l4.2-34.5l-1.2-0.2l-5.7,34.1c0,0-1.7,1.3-2.7-0.4
		l4.8-34.3l-1.9-0.3l-5.7,34.1c0,0-1.7,1.4-2.7-0.4l4.9-34.2l-1.5-0.2l-7.5,42.2c0,0-1.3,4.6,3.4,8.9c0,0,3.1,2.8,1.4,11.6
		c-1.4,6.9-2.7,14-4.2,20.9c-2,10.2-3.7,20.8-6.9,30.7c-2.4,7.9-5.7,15.7-7.8,23.7c-1.1,3.9-2.3,8.1-1.5,12.2
		c0.9,4.8,6.1,7.7,10.8,7.8c15.3,0.3,9.7-22.7,9.6-37.2c-0.1-5.9-0.5-11.6-0.2-17.2c0.5-10.2,1.2-20.6,2.2-30.8
		c0.5-5,1.1-9.8,3.1-14.5c0.9-2.1,2.3-4.9,4.6-6c0,0,5.3-2.6,5.4-8.2L238.7,301.4z"/>
	<path fill="#9A9A9A" d="M217.1,418.6c0,0,6.9,43.4-8.9,34.7C208.2,453.2,216,446.9,217.1,418.6z"/>
	<path fill="#9A9A9A" d="M233.5,338.8c0,0,0.6,10.1-7.4,12.1c-0.2,0.1-0.5,0.1-0.7,0.1l-1.8-0.3
		C223.5,350.5,231.4,345.1,233.5,338.8z"/>
</g>
<g>
	<path fill="#ECA697" d="M-48,466.4c0,0.2-0.3,0.1-0.3,0l2.1-19.5c0,0,1.1-1.7,2.2,0L-48,466.4z"/>
	<path fill="#ECA697" d="M-46.3,467.4c-0.1,0.1-0.3,0-0.2-0.1l10-17.1c0,0,1.7-1.1,2,0.9L-46.3,467.4z"/>
	<path fill="#ECA697" d="M-42.1,472c-0.1,0.1-0.3,0-0.2-0.2l12.4-15.5c0,0,1.8-0.8,1.9,1.2L-42.1,472z"/>
	<path fill="#ECA697" d="M-41.2,473.6c-0.1,0.1-0.3-0.1-0.1-0.2l16.9-10.4c0,0,2-0.1,1.4,1.7L-41.2,473.6z"/>
</g>
<g id="spoon">
	<path fill="#BDC0C0" d="M628.2,351.1c-16.1-17.5-21.4-31.6-22-33.4c4-6.5,1.3-16.9-5.7-26.9c-8.3-11.9-20.7-17.5-27.7-12.6
		c-6.9,4.8-5.9,18.4,2.4,30.3c6.9,9.9,16.2,15.7,23.6,14.3l8.5,8.3c7.5,9.6,15.9,24,15.9,24c1.5,2.1,21.5,40.4,21.5,40.4
		c7,11.6,14.7,5.3,14.7,5.3c8.2-5.8-0.8-15.5-0.8-15.5C657,383.5,628.2,351.1,628.2,351.1z"/>
	<path fill="#9A9A9A" d="M633,359.8c0,0,24.3,28,24.3,28s7,6.8-1.2,10.8c-1-3.3-2.2-6.5-3.6-9.6c-2.4-5.3-5.9-9.9-9.3-14.6
		C639.7,369.6,636.9,364.3,633,359.8z"/>
	<path fill="#9A9A9A" d="M572.4,281.9c0,0-3.1,14.4,6.4,25.8c0,0,9.2,13.1,21.2,12C600,319.6,577.2,298.6,572.4,281.9z"/>
</g>
</svg>
