<?xml version="1.0" encoding="utf-8"?>
<!-- Generator: Adobe Illustrator 18.1.1, SVG Export Plug-In . SVG Version: 6.00 Build 0)  -->
<svg version="1.1" id="Layer_1" xmlns="http://www.w3.org/2000/svg" xmlns:xlink="http://www.w3.org/1999/xlink" x="0px" y="0px"
	 viewBox="22.1 176 760.6 452.8" enable-background="new 22.1 176 760.6 452.8" xml:space="preserve">
<g id="tray">
	<rect id="tray_bottom" x="50.7" y="206.1" fill="#E1E2C7" width="710.7" height="393.4"/>
	<path fill="#AED9D2" d="M22.1,176v452.8h760.6V176H22.1z M44.2,486H34V317.2h10.2V486z M750.3,577.6l-16.2,16.2H71l-15.6-15.6
		V225.7l17.1-14.2h659.6l18.1,14.2v351.9H750.3z M771.6,486h-10.2V317.2h10.2V486z"/>
</g>
<g id="small_plate">
	<circle fill="#F8F7F7" cx="135" cy="472.9" r="60.5"/>
	<path fill="#D6D2D2" d="M90.4,475.7c-1.5-13,1.5-30.2,23.5-40.9c1.2-0.6,2.2,1.1,1.1,1.9c-9.9,6.9-22.2,19.4-22.4,38.8
		C92.6,477,90.5,477.1,90.4,475.7z"/>
</g>
<g id="coffee">
	<path fill="#341F0E" d="M703.7,334.8c0,23.7-19.6,43-43.7,43c-11.3,0-21.6-6-29.3-12.9c-8.8-7.9-14.4-17.4-14.4-30
		c0-23.7,19.6-43,43.7-43C684.1,291.8,703.7,311.1,703.7,334.8z"/>
	<g>
		<path fill="#7D273C" d="M635.8,297.4c-21.9,13.5-28.4,44.1-13.8,65.3c13.6,19.8,41.6,25.7,62,13.1c21.6-13.3,28.4-41.7,15.1-63.3
			C685.8,290.8,657.4,284,635.8,297.4z M681.6,370.3c-19.1,11.8-46,5.1-58.2-14.5c-10.6-17.3-5.1-41.9,13.3-53.1
			c23.2-14.3,51.1-5.2,60.1,13.4C703.4,329.6,704.3,356.4,681.6,370.3z"/>
		<path fill="#7D273C" d="M700.9,357.4c0,0,7.3,3.9,6.2,5.9c0,0-1.3,9.3-11.8,14.3c0,0-2.3,1.6-6.9-5L700.9,357.4z"/>
	</g>
</g>
<g id="plate">
	<circle fill="#F7F7F7" cx="396.8" cy="429.1" r="151.3"/>
	<g>
		<path fill="#D6D2D2" d="M515.7,457.1c0.5,27.3-8.4,74.6-74.8,83.3c-1.4,0.2-1.9-1.9-0.5-2.3c24-7.2,67.5-27.6,72.9-81.1
			C513.5,455.5,515.7,455.6,515.7,457.1z"/>
		<path fill="#D6D2D2" d="M280.3,420.9c-6.9-26.5-9.2-74.5,53.3-98.5c1.4-0.5,2.3,1.4,1,2.1c-21.7,12.7-59.3,42.6-52,95.8
			C282.8,421.9,280.6,422.3,280.3,420.9z"/>
	</g>
</g>
<g id="pancakes">
	<g>
		<path fill="#E2C1A6" d="M410.4,333.4c0,0-24.3-7.6-47.2,12.6c-2.7,2.4-6.1,4.3-9.7,5.3c-12.2,3.4-39.7,15-35.4,50.3
			c0.3,2.6,0.2,5.2-0.4,7.8c-2.6,12.1-6.9,50.5,41.8,68.9c1.3,0.5,2.7,1.1,4,1.8c8.6,5.1,51.4,26.4,99.1-17.2
			c0,0,16.7-13.7,22.8-30.6c1.7-4.8,1.6-10,0-14.9c-2.4-6.9-5.9-18-5-21.5C480.2,395.8,488,351.5,410.4,333.4z"/>
		<path fill="#AE8657" d="M412,324.9c0,0-24-7.9-46.6,13.1c-2.7,2.5-6.1,4.4-9.6,5.5c-12.1,3.5-39.2,15.6-35,52.3
			c0.3,2.7,0.2,5.5-0.4,8.1c-2.6,12.6-6.8,52.5,41.3,71.7c1.3,0.5,2.6,1.1,3.9,1.9c8.5,5.3,50.8,27.4,97.9-17.9
			c0,0,16.5-14.2,22.5-31.8c1.7-5,1.6-10.4,0-15.5c-2.3-7.2-5.8-18.8-4.9-22.4C481,389.8,488.6,343.7,412,324.9z"/>
		<path fill="#E2C1A6" d="M396.2,484.7c0,0,22.8,7.8,43-14.9c0.1-0.1,0.1-0.1,0.2-0.2c2.7-2.1,66.4-52.7-2-118
			c0,0-39.4-29.8-84.4,14.6c0,0-14.6,13-19.5,28.9c-1.2,4-1.1,8.2,0.1,12.1c2,6.3,5.1,16.9,4.3,20.2
			C337.9,427.4,331.4,467.9,396.2,484.7z"/>
		<path fill="#BC9262" d="M399.5,483.7c0,0,23.1,7.9,43.4-15c0.1-0.1,0.1-0.1,0.2-0.2c2.7-2.1,67.1-53-2-118.7
			c0,0-39.8-30-85.2,14.7c0,0-14.7,13.1-19.7,29c-1.2,4-1.1,8.2,0.1,12.2c2,6.3,5.1,17,4.4,20.4
			C340.6,426.1,333.9,466.8,399.5,483.7z"/>
	</g>
	<path fill="#E2C1A6" d="M343.4,428.4c0,0,33.2,72.1,80.5,42.2c0,0,42.7-4,38.5-54c0,0,8.1-43.9-43.6-66.3c0,0-8.2-4.1-18.1-5.8
		c-9-1.5-18.1,1.3-25,7.4c-3.8,3.3-8.1,6.8-10.1,7.1C365.6,358.9,331.6,367.5,343.4,428.4z"/>
	<path fill="#CB9F65" d="M345.2,427.1c0,0,32.6,70.9,79.2,41.6c0,0,42-3.9,37.9-53.1c0,0,8-43.2-42.9-65.3c0,0-8.1-4.1-17.8-5.7
		c-8.8-1.5-17.9,1.3-24.6,7.3c-3.8,3.2-7.9,6.7-9.9,7C367.1,358.6,333.7,367.1,345.2,427.1z"/>
</g>
<g id="syrup_love">
	<path opacity="0.5" fill="#632D15" enable-background="new    " d="M382.6,399.8c-1.6-1.9-4.8-6.6-1.2-10.5c1-1.1,2.6-1.5,4.2-1.2
		c3.7,0.8,11,1.2,12.7-7.1c0.1-0.5,0.3-0.9,0.5-1.3c2-3.5,12.5-19.4,25.1-6.2c0.6,0.6,1.3,1,2,1.3c3.4,1,12.3,2.3,13.7-10.2
		c0.1-0.8,0.4-1.6,0.9-2.3c1.8-2.3,6.8-6.6,14.2,3.1c1.1,1.5,3,2.1,4.8,1.6c5-1.5,14.7-5.2,19.6-12.8c1.9-3,6.3-2.8,7.9,0.3
		c1.1,2.2,2.3,5.7,3.1,10.8c0.2,1.4,1.2,2.7,2.5,3.3c5.7,2.6,20.5,10.5,22.8,21.4c0.1,0.6,0.4,1.2,0.7,1.7
		c2.2,3.1,10.3,14.8,12.6,22.1c0.6,2-0.3,4.1-2.1,5.2c-2.7,1.7-6.4,5.3-3,11.5c1.1,2.1,0.6,4.8-1.4,6.1
		c-8.4,5.5-27.5,19.9-32.8,39.5c-0.4,1.4-0.2,3,0.8,4.1c0.9,1,1.6,3.5,0.3,9.5c-2.4,10.8,2.8,43.7-15,42.8c0,0-13.4,2-15.6-20.1
		c0-0.2-0.1-0.4-0.1-0.6c-0.6-2.4-4.9-19.6-1.3-27.2c1-2.1,3.9-3.1,6-2c3,1.5,6.6,6.2,3.5,19.6c0,0.2-0.1,0.4-0.1,0.6
		c-0.2,2.1-0.9,14.9,8.2,14.4c0,0,6.6,1.9,4.2-22.6c0-0.1,0-0.1,0-0.2c-0.2-1.4-2.9-20.9,4.5-28.5c0.5-0.5,0.9-1.1,1.1-1.8
		c1-3.2,3.7-12.9-0.4-17c-0.5-0.5-0.9-1-1.1-1.6c-0.7-1.9-1.4-6.2,3.9-10.3c0.8-0.7,1.4-1.6,1.6-2.6c1-5.8,2.9-23.5-11.1-24.4
		c-0.8,0-1.6-0.3-2.3-0.8c-2.1-1.5-7.2-4.7-9.6-2.2c-1.4,1.3-3.4,1.7-5.2,0.9c-1.2-0.6-2.5-0.5-3.8,1.3s-3.7,2.2-5.7,1.3
		c-0.7-0.3-1.4-0.4-2.2-0.3c-2.1,0.3-4.3-0.5-5.1-2.4c-0.8-1.9-2.5-2.6-5.9,0.9c-7.3,7.6-8.7,9.8-5.1,15.6c0.3,0.4,0.6,0.8,1,1.1
		c1.9,1.5,7.9,7.2,2.5,18.1c-0.4,0.9-0.5,1.8-0.3,2.8c0.5,2.6,0.3,8.7-10.3,12.5c-1.3,0.4-2.3,1.4-2.7,2.7
		c-1.7,5-6.8,17.5-15.4,22.3c-1.2,0.6-2.6,0.8-3.9,0.3c-2.8-1.2-7.6-5.3-7.9-19.2c-0.1-2.6-2.2-4.7-4.8-4.6c-2.6,0.1-6,1.1-9.2,4.7
		c0,0-4.2,4.1-8.5,4.5c-1.4,0.1-2.7,0.8-3.5,2c-1,1.3-2.8,2.6-6.2,1.9c-1.7-0.3-3.4,0.3-4.6,1.7c-1.5,2.1-4.2,4.7-8,4.4
		c-2.1-0.2-4.5,1.2-5,3.3c-0.7,2.6-2.1,5.6-5.1,6.4c-1.3,0.4-2.3,1.5-2.7,2.8c-1.1,3.2-1.7,6.5-1.1,9.8c0.7,4.2-2,8.1-1.9,12.3
		c0,3.8,1.7,7,5.3,8.5c0.5,0.2,1,0.3,1.5,0.3c3.9,0.1,7.8,0.3,11.6,0.9c1.8,0.3,3.9,0.6,5.6,1.6c2.5,1.4,4.1,4.8,1.7,6.8
		c-2.5,2.2-6.6,2.9-9.7,3.7c-0.2,0-0.3,0.1-0.5,0.1c-2,0.2-15.3,1.4-21.3-1.5c-1.9-0.9-2.8-3.5-2-5.6c0.8-2,1-4.3,1.1-6.5
		c0.1-4.5-1.2-8.6-1.6-13c-0.2-2.1,0.8-3.7,1.7-5.5c0.8-1.8,1.6-3.5,2.3-5.5c1.1-3.1,2.7-7.5,1.3-10.8c-0.9-2-0.3-4.5,1.6-5.7
		c3.4-2.2,7.3-5.2,7.5-7.2c0.4-3.3,4.8-10.5,10.1-13.7c1.2-0.7,2-1.8,2.2-3.2c0.7-5.2,1.9-17.7-2.6-21.1c-1.3-1-2.2-2.4-2.1-4.2
		c0.1-2.6-7.5-8-14.4-12c-3.5-2-3.5-7.2,0.1-9.1c3-1.6,6.3-2.7,8.5-1.7c0,0,14.6,6,17.9,3.8c0.8-0.5,1.7-0.7,2.7-0.7
		c5.1-0.2,17.5-1.4,19.1-7.3C383.9,402.3,383.5,400.8,382.6,399.8z"/>
	<path opacity="0.5" fill="#632D15" enable-background="new    " d="M389.2,513.8c0,0-2-21.8-15.2-19.1c0,0-16.8,1.5-6.7,33.2
		c1.6,5.2,7.6,7.5,12.3,4.9C384.6,529.8,389.7,524.3,389.2,513.8z M375.5,520.4c-0.2,0-0.4,0.1-0.7,0.1c-2.4-0.1-3.3-3-3.1-5
		c0.3-3.8,5-5.6,7.5-2.9C381.4,515,378.4,519.7,375.5,520.4z"/>
	<path opacity="0.5" fill="#632D15" enable-background="new    " d="M391.5,496.5c0,0,6.3-5.9,8.7,14.1c0.3,2.1,3.1,2.4,4,0.5
		c1.2-2.9,2.3-6.3,2.8-9c0.6-3.1,4.6-7.8,8.2-8.3c4.1-0.5,0.9,7.7,0.3,9.1c-0.3,0.7-0.5,1.5-0.8,2.2c-1.3,3-2.4,6.3-3.2,9.5
		c-0.6,2.2-0.7,4.5-1,6.8c-0.6,4-3.8,7.7-6.2,10.6c-0.9,1.2-2,3-3.4,3.7c-2.7,1.1-3.5-4.3-4.1-6c-1.4-4.2-2.8-8.4-4-12.7
		c-1.1-4.1-2.1-8.2-2.5-12.5C390,502.3,389.6,498.5,391.5,496.5z"/>
	<path opacity="0.5" fill="#632D15" enable-background="new    " d="M424.8,494.7c0.4-0.1,0.7-0.2,1.1-0.3c2.2-0.5,9.5-1.7,10.8,0.9
		c0.3,0.7,0,1.5-0.5,2c-1.3,1.5-3.2,1.9-5.2,2.2c-1.6,0.2-6.9,1.8-3.3,3.9c2.8,1.6,7.2,0.3,9.6,2.5c2.2,2-2.7,3.8-4.2,4
		c-3.7,0.5-10.8-0.6-10.5,5.2c0.1,2.6,0.4,5,3.5,5.3c4.3,0.4,7.2-2.8,10.4-5.1c2.7-1.9,5.2-2.5,5.3,1.7c0.2,13.6,0.2,13.6-12.1,14.3
		c-0.1,0-0.3,0-0.4,0c-1.4,0.2-10.1,1.4-11.2-8.4c0,0-1.4-13.9,0.1-22C419.1,497.4,421.7,495.6,424.8,494.7z"/>
	<path opacity="0.5" fill="#632D15" enable-background="new    " d="M301.2,475.6c-0.3,2-0.3,4.8,0.6,6.7c1.1,2.3,4.5,2.5,6,0.4
		c2.7-3.8,6.7-11-3.2-10.2C302.9,472.6,301.4,473.9,301.2,475.6z"/>
	<path opacity="0.5" fill="#632D15" enable-background="new    " d="M302.6,492.1c-0.4,2.8-0.6,6.7,1,9.4c1.9,3.3,7.9,3.5,10.6,0.5
		c4.8-5.3,11.8-15.4-5.7-14.4C305.4,487.8,303,489.7,302.6,492.1z"/>
	<path fill="#B69D88" d="M330.7,505.3c-0.6,0.4-1.1,0.9-1.3,1.3c-1.3,2.4-0.2,5,0.3,7.4c0.6,2.7,0.9,5.6,0.9,8.4
		c0,1.3-0.1,2.6-0.4,3.9c-0.2,0.8-0.8,1.7-0.5,2.7c0.2,0.8,1.1,1.7,2,1.6c1-0.2,1.3-2.5,1.2-3.2c-0.7-3.4-1.2-6.9-1.6-10.4
		c-0.2-1.9-0.5-3.9-0.5-5.8c0-0.9,0.1-1.8,0.4-2.6s1.7-2,1.3-2.9C332.2,504.7,331.5,504.8,330.7,505.3z"/>
	<path fill="#B69D88" d="M366.5,504.9c-0.8,0.4-1.1,2.1-1.2,2.9c-0.3,2,0.2,4,0.4,6c0.3,2.5,0.4,5.1,1.1,7.6c0.4,1.5,0.9,3,1.5,4.5
		c0.3,0.7,0.6,1.4,1,2.1c0.2,0.4,0.6,0.7,1.1,0.7c0.5-0.1,0.5-0.7,0.5-1.1c-0.1-1.4-0.8-2.7-1.4-4.1c-1.7-3.8-2.1-8.2-2.3-12.3
		c-0.1-1.3-0.1-2.7,0.1-4.1c0.1-0.6,0.6-1.4,0.4-1.9C367.6,504.7,367,504.7,366.5,504.9z"/>
	<path fill="#B69D88" d="M392.3,504.8c-0.1,0.4,0.1,0.8,0.1,1.2c0.1,0.5,0.2,1,0.3,1.5c0.2,1.1,0.4,2.2,0.7,3.4
		c0.5,2.2,0.9,4.6,1.5,6.8c0.2,0.9,0.5,1.8,0.7,2.6c0.5,1.8,1.1,3.8,1.9,5.5c0.3,0.6,0.6,4.3,1.4,4.1c1.8-0.3,0.8-3.4,0.4-4.5
		c-0.4-1.1-0.8-2.1-1.3-3.2c-0.8-2.1-1.4-4.4-2-6.5c-0.5-1.7-1-3.4-1.3-5.2c-0.2-0.9-0.3-1.9-0.4-2.9c-0.1-0.9,0.1-2.3-0.5-3
		c-0.5-0.6-1.2-0.7-1.5,0.1C392.3,504.7,392.3,504.7,392.3,504.8z"/>
	<path fill="#B69D88" d="M420.4,500.6C420.4,500.7,420.4,500.7,420.4,500.6c-0.5,0.6-0.8,1-1,1.7c-0.5,2.4-0.3,5.2-0.2,7.6
		c0.1,4.7,0.2,9.5,1,14.2c0.2,0.9,0.8,2.2,1.6,2.8c0.8,0.6,1.1-0.9,1-1.4c-0.1-0.5-0.3-0.9-0.4-1.4c-0.5-1.7-0.8-3.4-1.1-5.2
		c-0.9-5.4-1-11,0.1-16.3c0.1-0.7,0.5-1.3,0.2-1.9C421.3,500.1,420.8,500.2,420.4,500.6z"/>
	<path fill="#B69D88" d="M459.5,489.6c-0.4,1.6-0.6,3.3-0.7,5.1c-0.1,4.2,0.6,8.4,1.7,12.4c0.2,0.8,0.4,1.5,0.7,2.3
		c0.1,0.4,0.3,0.8,0.4,1.2c0.6,1.9,0.6,4,1,5.9c0.4,2,0.8,4.1,1.7,6c0.4,0.9,0.9,1.7,1.6,2.4c0.4,0.3,1.1,0.9,1.7,0.7
		c0.2-0.1,0.3-0.3,0.4-0.5c0.4-1.8-1.2-3.7-1.8-5.2c-0.4-1.1-0.7-2.3-1-3.5c-0.4-1.9-0.5-3.9-1.1-5.7c-0.7-1.9-1.3-4-1.8-6
		c-1-4-1.9-8.2-1.7-12.3c0-0.8,0.2-1.7,0.3-2.5c0.1-0.4-0.5-1.5-1-1.1c-0.1,0.1-0.2,0.3-0.3,0.5
		C459.6,489.3,459.6,489.5,459.5,489.6z"/>
	<path fill="#C1A58F" d="M492.1,373.7c0,0,15.5,5.3,17.9,16.9c0.2,1.1,0.8,2.1,1.6,2.8c2.9,2.8,9.6,9.6,11.6,15.2
		c0.8,2.2,0.1,4.8-1.8,6.2c-2.8,2.2-7.7,7.6-3.7,17.1c0.5,1.1,0.2,2.4-0.7,3.1c-1.3,0.9-1.6,1-3.1-1.1c-0.3-0.4-0.3-1.1-0.4-1.6
		c-0.1-2.9-1.9-11.1,3.5-17c1.6-1.7,4.6-3,2.8-6.4c-1.3-2.6-5.5-9.6-9.4-12.4c-1.3-0.9-2.3-2.3-2.4-4c-0.4-3.5-2.9-8.9-15.9-16.4
		C492.1,376.5,488.1,374.3,492.1,373.7z"/>
</g>
<g id="butter">
	<path fill="#D2B331" d="M394.9,397.1c0,0-15.1,16.9-11.5,27.9c0,0,10.2,6.1,14.5,5.5c0,0,15.1-13.2,14.5-20.2
		C412.5,410.1,407.6,398.3,394.9,397.1z"/>
	<path fill="#E9D582" d="M394.4,394.8c0,0-15.1,16.9-11.5,27.9c0,0,10.2,6.1,14.5,5.5c0,0,15.1-13.2,14.5-20.2
		C412,407.9,407.2,396,394.4,394.8z"/>
</g>
<g id="remote_1_">
	<g id="remote">
		<path fill="#777575" d="M613.2,533.4l21,21c0.8,0.8,2.2,0.8,3.1,0l105.8-105.8c0.8-0.8,0.8-2.2,0-3.1l-21-21
			c-0.8-0.8-2.2-0.8-3.1,0L613.2,530.3C612.4,531.2,612.4,532.6,613.2,533.4z"/>
		<g>
			<path fill="#9F9F9F" d="M614.8,531.6l19.4,19.4c0.8,0.8,2.2,0.8,3.1,0l104.1-104.1c0.8-0.8,0.8-2.2,0-3.1L722,424.3
				c-0.8-0.8-2.2-0.8-3.1,0L614.8,528.5C613.9,529.4,613.9,530.8,614.8,531.6z"/>
		</g>
	</g>
	<circle fill="#222121" cx="690.3" cy="464.6" r="5.4"/>
	<circle fill="#222121" cx="701.1" cy="475.4" r="5.4"/>
	<path fill="#222121" d="M715.2,437.5c-7,0-12.8,5.7-12.8,12.8c0,7,5.7,12.8,12.8,12.8s12.8-5.7,12.8-12.8S722.2,437.5,715.2,437.5z
		 M715.2,457c-3.8,0-6.8-3-6.8-6.8c0-3.8,3-6.8,6.8-6.8s6.8,3,6.8,6.8C721.9,453.9,719,457,715.2,457z"/>
</g>
<g id="grapefruit">
	<circle fill="#F6F2BC" stroke="#EFE45E" stroke-width="1.8516" stroke-miterlimit="10" cx="139.3" cy="477.9" r="42.8"/>
	<path fill="#EC5650" stroke="#ECA697" stroke-width="0.8954" stroke-miterlimit="10" d="M165,502.2c0,0-3,17.3-18.1,11.1l-6.3-25.8
		c0,0,4.2-1.2,5.8-4.4L165,502.2z"/>
	<path fill="#EC5650" stroke="#ECA697" stroke-width="0.8954" stroke-miterlimit="10" d="M145.9,513.1c0,0-9.6,12-18.9-1.5l8.7-25
		c0,0,1.7,2.1,4.8,0.4L145.9,513.1z"/>
	<path fill="#EC5650" stroke="#ECA697" stroke-width="0.8954" stroke-miterlimit="10" d="M126.2,511.2c0,0-16.7,1.8-15.8-14.6
		l22.3-14.5c0,0,1.8,4.6,5.4,5.1L126.2,511.2z"/>
	<path fill="#EC5650" stroke="#ECA697" stroke-width="0.8954" stroke-miterlimit="10" d="M110,495.9c0,0-14.7-4.7-5.4-18.1l26.6-0.9
		c0,0-1.4,2.3,1.3,4.6L110,495.9z"/>
	<path fill="#EC5650" stroke="#ECA697" stroke-width="0.8954" stroke-miterlimit="10" d="M104.7,477.9c0,0-10.1-11.6,4.8-18.3
		l23.2,12.9c0,0-2.4,1.3-1.2,4.7L104.7,477.9z"/>
	<path fill="#EC5650" stroke="#ECA697" stroke-width="0.8954" stroke-miterlimit="10" d="M109.9,459c0,0-2.3-15.2,13.9-12.8
		l12.5,23.4c0,0-2.7-0.2-3.5,3.2L109.9,459z"/>
	<path fill="#EC5650" stroke="#ECA697" stroke-width="0.8954" stroke-miterlimit="10" d="M124.2,445.9c0,0,5.9-14.2,18.6-3.7
		l-1.5,26.5c0,0-2.2-1.6-4.7,0.9L124.2,445.9z"/>
	<path fill="#EC5650" stroke="#ECA697" stroke-width="0.8954" stroke-miterlimit="10" d="M143,442.2c0,0,12.7-8.7,17.6,6.9
		L145,470.6c0,0-1-2.5-4.5-1.7L143,442.2z"/>
	<path fill="#EC5650" stroke="#ECA697" stroke-width="0.8954" stroke-miterlimit="10" d="M161,449.1c0,0,15.3-0.9,11.5,15.1
		l-24.5,10.2c0,0,0.5-2.7-2.9-3.9L161,449.1z"/>
	<path fill="#EC5650" stroke="#ECA697" stroke-width="0.8954" stroke-miterlimit="10" d="M172.6,464.3c0,0,13.6,7.1,2.1,18.8
		l-26.3-3.8c0,0,1.8-2-0.5-4.8L172.6,464.3z"/>
	<path fill="#EC5650" stroke="#ECA697" stroke-width="0.8954" stroke-miterlimit="10" d="M174.7,483c0,0,6.3,14.9-9.6,19.1
		l-20.7-16.6c0,0,4.4-2.7,3.8-6.2L174.7,483z"/>
	<ellipse fill="#F6F2BC" stroke="#EBA596" stroke-width="1.8516" stroke-miterlimit="10" cx="139.9" cy="477.9" rx="8.6" ry="9.1"/>
</g>
<g id="flower">
	<path fill="#B06CA8" d="M160.6,270.7c0,0-6.5-21.5-51.7-2.5c-1.4,0.6-1,2.6,0.5,2.6c9.8,0,28.5-0.5,36-4.7c0,0-39.7,4.8-44.3,15.6
		c-0.2,0.5-0.1,1.2,0.3,1.5c3.5,3.1,21.4,17.3,50,4.9c0,0-31.9,1.9-42.3,10c-0.9,0.7-0.6,2.2,0.5,2.4c10.2,2.3,49.6,9.2,52-22
		C161.8,278.6,164.2,274.7,160.6,270.7z"/>
	<path fill="#C392C0" d="M176,266.8c0,0-7.9-26.3-63.7-2.1c-1.1,0.5-0.8,2.2,0.4,2.2c10.8,0.1,35.6-0.2,45.1-5.6
		c0,0-48.5,5.9-52.8,19c-0.1,0.4,0,0.8,0.3,1.1c3.4,3.2,36.3,17.1,59.7,6c0,0-39.8,2.3-51.1,12.6c-0.7,0.6-0.4,1.7,0.5,1.9
		c10.3,2.4,59.7,12.3,62.9-25.7c0-0.1,0.1-0.3,0.1-0.4C177.9,275.1,179.8,270.9,176,266.8z"/>
	<path fill="#4E7C45" d="M406.2,239.7c0,0-97.6-15.9-157.6,4.1c0,0-48.8,10.6-70.5,25.3c-0.5,0.3-0.8,0.9-0.8,1.5v3.3
		c0,1.3,1.4,2.1,2.5,1.5c10.8-6.1,56-29.3,125.9-33.5c0,0,47.2-5.9,100.3,4.1C406.2,246.1,414.9,241,406.2,239.7z"/>
	<path fill="#649150" d="M289.9,235.5c0,0-33.7,2.1-62.1,23.3c0,0-26.8,23.8-50.4,24.6c0,0,20.5,4.6,57.9-22.3
		c0,0,50-18.6,55.5-17.9L289.9,235.5z"/>
	<path fill="#4E7C45" d="M291,243.1c0,0-33,7.1-66.1-5.7c0,0-32.2-15.7-55.2-10c0,0,18.5-9.9,61.7,5.9c0,0,53.1,4.4,58.3,2.2
		L291,243.1z"/>
</g>
<g id="spoon">
	<path fill="#BDC0C0" d="M619.4,378.7c-15.3-16.6-20.3-30-20.9-31.8c3.8-6.2,1.2-16.1-5.4-25.6c-7.9-11.3-19.7-16.6-26.3-12
		s-5.6,17.5,2.3,28.8c6.6,9.4,15.4,14.9,22.4,13.6l8.1,7.9c7.1,9.1,15.1,22.8,15.1,22.8c1.4,2,20.4,38.4,20.4,38.4c6.7,11,14,5,14,5
		c7.8-5.5-0.8-14.7-0.8-14.7C646.7,409.5,619.4,378.7,619.4,378.7z"/>
	<path fill="#9A9A9A" d="M565.3,313.4c0.1,0.1-0.8,2.1-0.9,2.3c-0.6,2.2-0.6,4.6-0.3,6.8c0.6,5,2.8,9.6,5.6,13.8
		c2.2,3.3,4.8,6.5,8,8.9c1.8,1.3,3.8,2.4,5.9,3.3c1.2,0.5,2.4,0.9,3.8,1.2c0.7,0.2,1.4,0.3,2,0.4c0.3,0.1,1.9,0.1,2,0.3
		C591.3,350.5,565.3,313.4,565.3,313.4z"/>
	<path fill="#9A9A9A" d="M622.5,384.9l24.9,28.2c0,0,5.1,4.3,1.7,11"/>
</g>
<g id="fork">
	<path fill="#BDC0C0" d="M249,331.5l-1.4-0.2l-4.9,32.5c0,0-1.6,1.1-2.6-0.4l4-32.8l-1.1-0.2l-5.4,32.4c0,0-1.6,1.2-2.6-0.4
		l4.6-32.6l-1.8-0.3l-5.4,32.4c0,0-1.6,1.3-2.6-0.4l4.7-32.5l-1.4-0.2l-7.1,40.1c0,0-1.2,4.4,3.2,8.5c0,0,2.9,2.7,1.3,11
		c-1.3,6.6-2.6,13.3-4,19.9c-1.9,9.7-3.5,19.8-6.6,29.2c-2.3,7.5-5.4,14.9-7.4,22.5c-1,3.7-2.2,7.7-1.4,11.6
		c0.9,4.6,5.8,7.3,10.3,7.4c14.5,0.3,9.2-21.6,9.1-35.4c-0.1-5.6-0.5-11-0.2-16.4c0.5-9.7,1.1-19.6,2.1-29.3c0.5-4.8,1-9.3,2.9-13.8
		c0.9-2,2.2-4.7,4.4-5.7c0,0,5-2.5,5.1-7.8L249,331.5z"/>
	<path fill="#9A9A9A" d="M228.5,442.9c0,0,6.6,41.3-8.5,33C220,475.8,227.5,469.8,228.5,442.9z"/>
	<path fill="#9A9A9A" d="M244.1,367c0,0,0.6,9.6-7,11.5c-0.2,0.1-0.5,0.1-0.7,0.1l-1.7-0.3C234.6,378.2,242.1,373,244.1,367z"/>
</g>
</svg>
