<?xml version="1.0" encoding="utf-8"?>
<!-- Generator: Adobe Illustrator 18.1.1, SVG Export Plug-In . SVG Version: 6.00 Build 0)  -->
<svg version="1.1" id="Layer_1" xmlns="http://www.w3.org/2000/svg" xmlns:xlink="http://www.w3.org/1999/xlink" x="0px" y="0px"
	 viewBox="0 0 789 482" enable-background="new 0 0 789 482" xml:space="preserve">
<g id="tray">
	<rect id="tray_bottom" x="50" y="49.8" fill="#E1E2C7" width="700.9" height="388"/>
	<path fill="#AED9D2" d="M21.8,20.1v446.6h750.1V20.1H21.8z M43.6,325.8H33.5V159.3h10.1V325.8z M740,416.2l-16,16H70l-15.4-15.4
		V69.1l16.9-14h650.5l17.9,14V416.2z M761,325.8h-10.1V159.3H761V325.8z"/>
</g>
<g id="small_plate">
	<circle fill="#F8F7F7" cx="133.1" cy="312.9" r="59.7"/>
	<path fill="#D6D2D2" d="M89.2,315.7c-1.5-12.8,1.5-29.8,23.2-40.3c1.2-0.6,2.2,1.1,1.1,1.9c-9.8,6.8-21.9,19.1-22.1,38.3
		C91.3,316.9,89.3,317,89.2,315.7z"/>
</g>
<g id="coffee">
	<path fill="#341F0E" d="M694,176.7c0,23.4-19.3,42.4-43.1,42.4c-11.1,0-21.3-5.9-28.9-12.7c-8.7-7.8-14.2-17.2-14.2-29.6
		c0-23.4,19.3-42.4,43.1-42.4C674.7,134.3,694,153.3,694,176.7z"/>
	<g>
		<path fill="#7D273C" d="M627.1,139.8c-21.6,13.3-28,43.5-13.6,64.4c13.4,19.5,41,25.3,61.1,12.9c21.3-13.1,28-41.1,14.9-62.4
			C676.4,133.3,648.4,126.6,627.1,139.8z M672.2,211.7c-18.8,11.6-45.4,5-57.4-14.3c-10.5-17.1-5-41.3,13.1-52.4
			c22.9-14.1,50.4-5.1,59.3,13.2C693.7,171.6,694.6,198,672.2,211.7z"/>
		<path fill="#7D273C" d="M691.3,199c0,0,7.2,3.8,6.1,5.8c0,0-1.3,9.2-11.6,14.1c0,0-2.3,1.6-6.8-4.9L691.3,199z"/>
	</g>
</g>
<g id="plate">
	<circle fill="#F7F7F7" cx="391.3" cy="269.7" r="149.2"/>
	<g>
		<path fill="#D6D2D2" d="M508.6,297.3c0.5,26.9-8.3,73.6-73.8,82.2c-1.4,0.2-1.9-1.9-0.5-2.3c23.7-7.1,66.6-27.2,71.9-80
			C506.4,295.7,508.6,295.8,508.6,297.3z"/>
		<path fill="#D6D2D2" d="M276.4,261.6c-6.8-26.1-9.1-73.5,52.6-97.1c1.4-0.5,2.3,1.4,1,2.1c-21.4,12.5-58.5,42-51.3,94.5
			C278.9,262.6,276.7,263,276.4,261.6z"/>
	</g>
</g>
<g id="pancakes">
	<g>
		<path fill="#E2C1A6" d="M404.8,175.3c0,0-24-7.5-46.6,12.4c-2.7,2.4-6,4.2-9.6,5.2c-12,3.4-39.2,14.8-34.9,49.6
			c0.3,2.6,0.2,5.1-0.4,7.7c-2.6,11.9-6.8,49.8,41.2,68c1.3,0.5,2.7,1.1,3.9,1.8c8.5,5,50.7,26,97.7-17c0,0,16.5-13.5,22.5-30.2
			c1.7-4.7,1.6-9.9,0-14.7c-2.4-6.8-5.8-17.8-4.9-21.2C473.6,236.9,481.3,193.2,404.8,175.3z"/>
		<path fill="#AE8657" d="M406.3,166.9c0,0-23.7-7.8-46,12.9c-2.7,2.5-6,4.3-9.5,5.4c-11.9,3.5-38.7,15.4-34.5,51.6
			c0.3,2.7,0.2,5.4-0.4,8c-2.6,12.4-6.7,51.8,40.7,70.7c1.3,0.5,2.6,1.1,3.8,1.9c8.4,5.2,50.1,27,96.6-17.7c0,0,16.3-14,22.2-31.4
			c1.7-4.9,1.6-10.3,0-15.3c-2.3-7.1-5.7-18.5-4.8-22.1C474.4,230.9,481.9,185.5,406.3,166.9z"/>
		<path fill="#E2C1A6" d="M390.8,324.5c0,0,22.5,7.7,42.4-14.7c0.1-0.1,0.1-0.1,0.2-0.2c2.7-2.1,65.5-52-2-116.4
			c0,0-38.9-29.4-83.2,14.4c0,0-14.4,12.8-19.2,28.5c-1.2,3.9-1.1,8.1,0.1,11.9c2,6.2,5,16.7,4.2,19.9
			C333.3,268,326.8,308,390.8,324.5z"/>
		<path fill="#BC9262" d="M394,323.5c0,0,22.8,7.8,42.8-14.8c0.1-0.1,0.1-0.1,0.2-0.2c2.7-2.1,66.2-52.3-2-117.1
			c0,0-39.3-29.6-84,14.5c0,0-14.5,12.9-19.4,28.6c-1.2,3.9-1.1,8.1,0.1,12c2,6.2,5,16.8,4.3,20.1
			C335.9,266.7,329.3,306.9,394,323.5z"/>
	</g>
	<path fill="#E2C1A6" d="M338.7,269c0,0,32.7,71.1,79.4,41.6c0,0,42.1-3.9,38-53.3c0,0,8-43.3-43-65.4c0,0-8.1-4-17.9-5.7
		c-8.9-1.5-17.9,1.3-24.7,7.3c-3.7,3.3-8,6.7-10,7C360.6,200.5,327,208.9,338.7,269z"/>
	<path fill="#CB9F65" d="M340.5,267.7c0,0,32.2,69.9,78.1,41c0,0,41.4-3.8,37.4-52.4c0,0,7.9-42.6-42.3-64.4c0,0-8-4-17.6-5.6
		c-8.7-1.5-17.7,1.3-24.3,7.2c-3.7,3.2-7.8,6.6-9.8,6.9C362.1,200.2,329.1,208.6,340.5,267.7z"/>
</g>
<g id="syrup_love">
	<path opacity="0.5" fill="#632D15" d="M377.3,240.8c-1.6-1.9-4.7-6.5-1.2-10.4c1-1.1,2.6-1.5,4.1-1.2c3.6,0.8,10.8,1.2,12.5-7
		c0.1-0.5,0.3-0.9,0.5-1.3c2-3.5,12.3-19.1,24.8-6.1c0.6,0.6,1.3,1,2,1.3c3.4,1,12.1,2.3,13.5-10.1c0.1-0.8,0.4-1.6,0.9-2.3
		c1.8-2.3,6.7-6.5,14,3.1c1.1,1.5,3,2.1,4.7,1.6c4.9-1.5,14.5-5.1,19.3-12.6c1.9-3,6.2-2.8,7.8,0.3c1.1,2.2,2.3,5.6,3.1,10.7
		c0.2,1.4,1.2,2.7,2.5,3.3c5.6,2.6,20.2,10.4,22.5,21.1c0.1,0.6,0.4,1.2,0.7,1.7c2.2,3.1,10.2,14.6,12.4,21.8c0.6,2-0.3,4-2.1,5.1
		c-2.7,1.7-6.3,5.2-3,11.3c1.1,2.1,0.6,4.7-1.4,6c-8.3,5.4-27.1,19.6-32.3,39c-0.4,1.4-0.2,3,0.8,4c0.9,1,1.6,3.5,0.3,9.4
		c-2.4,10.7,2.8,43.1-14.8,42.2c0,0-13.2,2-15.4-19.8c0-0.2-0.1-0.4-0.1-0.6c-0.6-2.4-4.8-19.3-1.3-26.8c1-2.1,3.8-3.1,5.9-2
		c3,1.5,6.5,6.1,3.5,19.3c0,0.2-0.1,0.4-0.1,0.6c-0.2,2.1-0.9,14.7,8.1,14.2c0,0,6.5,1.9,4.1-22.3c0-0.1,0-0.1,0-0.2
		c-0.2-1.4-2.9-20.6,4.4-28.1c0.5-0.5,0.9-1.1,1.1-1.8c1-3.2,3.6-12.7-0.4-16.8c-0.5-0.5-0.9-1-1.1-1.6c-0.7-1.9-1.4-6.1,3.8-10.2
		c0.8-0.7,1.4-1.6,1.6-2.6c1-5.7,2.9-23.2-10.9-24.1c-0.8,0-1.6-0.3-2.3-0.8c-2.1-1.5-7.1-4.6-9.5-2.2c-1.4,1.3-3.4,1.7-5.1,0.9
		c-1.2-0.6-2.5-0.5-3.7,1.3c-1.2,1.8-3.6,2.2-5.6,1.3c-0.7-0.3-1.4-0.4-2.2-0.3c-2.1,0.3-4.2-0.5-5-2.4c-0.8-1.9-2.5-2.6-5.8,0.9
		c-7.2,7.5-8.6,9.7-5,15.4c0.3,0.4,0.6,0.8,1,1.1c1.9,1.5,7.8,7.1,2.5,17.9c-0.4,0.9-0.5,1.8-0.3,2.8c0.5,2.6,0.3,8.6-10.2,12.3
		c-1.3,0.4-2.3,1.4-2.7,2.7c-1.7,4.9-6.7,17.3-15.2,22c-1.2,0.6-2.6,0.8-3.8,0.3c-2.8-1.2-7.5-5.2-7.8-18.9
		c-0.1-2.6-2.2-4.6-4.7-4.5c-2.6,0.1-5.9,1.1-9.1,4.6c0,0-4.1,4-8.4,4.4c-1.4,0.1-2.7,0.8-3.5,2c-1,1.3-2.8,2.6-6.1,1.9
		c-1.7-0.3-3.4,0.3-4.5,1.7c-1.5,2.1-4.1,4.6-7.9,4.3c-2.1-0.2-4.4,1.2-4.9,3.3c-0.7,2.6-2.1,5.5-5,6.3c-1.3,0.4-2.3,1.5-2.7,2.8
		c-1.1,3.2-1.7,6.4-1.1,9.7c0.7,4.1-2,8-1.9,12.1c0,3.7,1.7,6.9,5.2,8.4c0.5,0.2,1,0.3,1.5,0.3c3.8,0.1,7.7,0.3,11.4,0.9
		c1.8,0.3,3.8,0.6,5.5,1.6c2.5,1.4,4,4.7,1.7,6.7c-2.5,2.2-6.5,2.9-9.6,3.6c-0.2,0-0.3,0.1-0.5,0.1c-2,0.2-15.1,1.4-21-1.5
		c-1.9-0.9-2.8-3.5-2-5.5c0.8-2,1-4.2,1.1-6.4c0.1-4.4-1.2-8.5-1.6-12.8c-0.2-2.1,0.8-3.6,1.7-5.4c0.8-1.8,1.6-3.5,2.3-5.4
		c1.1-3.1,2.7-7.4,1.3-10.7c-0.9-2-0.3-4.4,1.6-5.6c3.4-2.2,7.2-5.1,7.4-7.1c0.4-3.3,4.7-10.4,10-13.5c1.2-0.7,2-1.8,2.2-3.2
		c0.7-5.1,1.9-17.5-2.6-20.8c-1.3-1-2.2-2.4-2.1-4.1c0.1-2.6-7.4-7.9-14.2-11.8c-3.5-2-3.5-7.1,0.1-9c3-1.6,6.2-2.7,8.4-1.7
		c0,0,14.4,5.9,17.7,3.7c0.8-0.5,1.7-0.7,2.7-0.7c5-0.2,17.3-1.4,18.8-7.2C378.6,243.3,378.2,241.8,377.3,240.8z"/>
	<path opacity="0.5" fill="#632D15" d="M383.8,353.2c0,0-2-21.5-15-18.8c0,0-16.6,1.5-6.6,32.7c1.6,5.1,7.5,7.4,12.1,4.8
		C379.3,369,384.3,363.6,383.8,353.2z M370.3,359.7c-0.2,0-0.4,0.1-0.7,0.1c-2.4-0.1-3.3-3-3.1-4.9c0.3-3.7,4.9-5.5,7.4-2.9
		C376.2,354.4,373.2,359.1,370.3,359.7z"/>
	<path opacity="0.5" fill="#632D15" d="M386.1,336.2c0,0,6.2-5.8,8.6,13.9c0.3,2.1,3.1,2.4,3.9,0.5c1.2-2.9,2.3-6.2,2.8-8.9
		c0.6-3.1,4.5-7.7,8.1-8.2c4-0.5,0.9,7.6,0.3,9c-0.3,0.7-0.5,1.5-0.8,2.2c-1.3,3-2.4,6.2-3.2,9.4c-0.6,2.2-0.7,4.4-1,6.7
		c-0.6,3.9-3.7,7.6-6.1,10.5c-0.9,1.2-2,3-3.4,3.6c-2.7,1.1-3.5-4.2-4-5.9c-1.4-4.1-2.8-8.3-3.9-12.5c-1.1-4-2.1-8.1-2.5-12.3
		C384.6,341.9,384.2,338.1,386.1,336.2z"/>
	<path opacity="0.5" fill="#632D15" d="M419,334.4c0.4-0.1,0.7-0.2,1.1-0.3c2.2-0.5,9.4-1.7,10.7,0.9c0.3,0.7,0,1.5-0.5,2
		c-1.3,1.5-3.2,1.9-5.1,2.2c-1.6,0.2-6.8,1.8-3.3,3.8c2.8,1.6,7.1,0.3,9.5,2.5c2.2,2-2.7,3.7-4.1,3.9c-3.6,0.5-10.7-0.6-10.4,5.1
		c0.1,2.6,0.4,4.9,3.5,5.2c4.2,0.4,7.1-2.8,10.3-5c2.7-1.9,5.1-2.5,5.2,1.7c0.2,13.4,0.2,13.4-11.9,14.1c-0.1,0-0.3,0-0.4,0
		c-1.4,0.2-10,1.4-11-8.3c0,0-1.4-13.7,0.1-21.7C413.3,337.1,415.9,335.3,419,334.4z"/>
	<path opacity="0.5" fill="#632D15" d="M297.1,315.6c-0.3,2-0.3,4.7,0.6,6.6c1.1,2.3,4.4,2.5,5.9,0.4c2.7-3.7,6.6-10.8-3.2-10.1
		C298.7,312.6,297.3,313.9,297.1,315.6z"/>
	<path opacity="0.5" fill="#632D15" d="M298.4,331.8c-0.4,2.8-0.6,6.6,1,9.3c1.9,3.3,7.8,3.5,10.5,0.5c4.7-5.2,11.6-15.2-5.6-14.2
		C301.2,327.6,298.8,329.5,298.4,331.8z"/>
	<path fill="#B69D88" d="M326.2,344.9c-0.6,0.4-1.1,0.9-1.3,1.3c-1.3,2.4-0.2,4.9,0.3,7.3c0.6,2.7,0.9,5.5,0.9,8.3
		c0,1.3-0.1,2.6-0.4,3.8c-0.2,0.8-0.8,1.7-0.5,2.7c0.2,0.8,1.1,1.7,2,1.6c1-0.2,1.3-2.5,1.2-3.2c-0.7-3.4-1.2-6.8-1.6-10.3
		c-0.2-1.9-0.5-3.8-0.5-5.7c0-0.9,0.1-1.8,0.4-2.6c0.3-0.8,1.7-2,1.3-2.9C327.6,344.3,326.9,344.4,326.2,344.9z"/>
	<path fill="#B69D88" d="M361.5,344.5c-0.8,0.4-1.1,2.1-1.2,2.9c-0.3,2,0.2,3.9,0.4,5.9c0.3,2.5,0.4,5,1.1,7.5
		c0.4,1.5,0.9,3,1.5,4.4c0.3,0.7,0.6,1.4,1,2.1c0.2,0.4,0.6,0.7,1.1,0.7c0.5-0.1,0.5-0.7,0.5-1.1c-0.1-1.4-0.8-2.7-1.4-4
		c-1.7-3.7-2.1-8.1-2.3-12.1c-0.1-1.3-0.1-2.7,0.1-4c0.1-0.6,0.6-1.4,0.4-1.9C362.5,344.3,362,344.3,361.5,344.5z"/>
	<path fill="#B69D88" d="M386.9,344.4c-0.1,0.4,0.1,0.8,0.1,1.2c0.1,0.5,0.2,1,0.3,1.5c0.2,1.1,0.4,2.2,0.7,3.4
		c0.5,2.2,0.9,4.5,1.5,6.7c0.2,0.9,0.5,1.8,0.7,2.6c0.5,1.8,1.1,3.7,1.9,5.4c0.3,0.6,0.6,4.2,1.4,4c1.8-0.3,0.8-3.4,0.4-4.4
		c-0.4-1.1-0.8-2.1-1.3-3.2c-0.8-2.1-1.4-4.3-2-6.4c-0.5-1.7-1-3.4-1.3-5.1c-0.2-0.9-0.3-1.9-0.4-2.9c-0.1-0.9,0.1-2.3-0.5-3
		c-0.5-0.6-1.2-0.7-1.5,0.1C386.9,344.3,386.9,344.3,386.9,344.4z"/>
	<path fill="#B69D88" d="M414.6,340.2C414.6,340.3,414.6,340.3,414.6,340.2c-0.5,0.6-0.8,1-1,1.7c-0.5,2.4-0.3,5.1-0.2,7.5
		c0.1,4.6,0.2,9.4,1,14c0.2,0.9,0.8,2.2,1.6,2.8c0.8,0.6,1.1-0.9,1-1.4c-0.1-0.5-0.3-0.9-0.4-1.4c-0.5-1.7-0.8-3.4-1.1-5.1
		c-0.9-5.3-1-10.8,0.1-16.1c0.1-0.7,0.5-1.3,0.2-1.9C415.5,339.7,415,339.8,414.6,340.2z"/>
	<path fill="#B69D88" d="M453.2,329.4c-0.4,1.6-0.6,3.3-0.7,5c-0.1,4.1,0.6,8.3,1.7,12.2c0.2,0.8,0.4,1.5,0.7,2.3
		c0.1,0.4,0.3,0.8,0.4,1.2c0.6,1.9,0.6,3.9,1,5.8c0.4,2,0.8,4,1.7,5.9c0.4,0.9,0.9,1.7,1.6,2.4c0.4,0.3,1.1,0.9,1.7,0.7
		c0.2-0.1,0.3-0.3,0.4-0.5c0.4-1.8-1.2-3.6-1.8-5.1c-0.4-1.1-0.7-2.3-1-3.5c-0.4-1.9-0.5-3.8-1.1-5.6c-0.7-1.9-1.3-3.9-1.8-5.9
		c-1-3.9-1.9-8.1-1.7-12.1c0-0.8,0.2-1.7,0.3-2.5c0.1-0.4-0.5-1.5-1-1.1c-0.1,0.1-0.2,0.3-0.3,0.5
		C453.3,329.1,453.3,329.3,453.2,329.4z"/>
	<path fill="#C1A58F" d="M485.3,215.1c0,0,15.3,5.2,17.7,16.7c0.2,1.1,0.8,2.1,1.6,2.8c2.9,2.8,9.5,9.5,11.4,15
		c0.8,2.2,0.1,4.7-1.8,6.1c-2.8,2.2-7.6,7.5-3.6,16.9c0.5,1.1,0.2,2.4-0.7,3.1c-1.3,0.9-1.6,1-3.1-1.1c-0.3-0.4-0.3-1.1-0.4-1.6
		c-0.1-2.9-1.9-10.9,3.5-16.8c1.6-1.7,4.5-3,2.8-6.3c-1.3-2.6-5.4-9.5-9.3-12.2c-1.3-0.9-2.3-2.3-2.4-3.9
		c-0.4-3.5-2.9-8.8-15.7-16.2C485.3,217.8,481.4,215.7,485.3,215.1z"/>
</g>
<g id="butter">
	<path fill="#D2B331" d="M389.5,238.1c0,0-14.9,16.7-11.3,27.5c0,0,10.1,6,14.3,5.4c0,0,14.9-13,14.3-19.9
		C406.8,251,402,239.3,389.5,238.1z"/>
	<path fill="#E9D582" d="M389,235.9c0,0-14.9,16.7-11.3,27.5c0,0,10.1,6,14.3,5.4c0,0,14.9-13,14.3-19.9
		C406.3,248.8,401.6,237.1,389,235.9z"/>
</g>
<g id="remote_1_">
	<g id="remote">
		<path fill="#777575" d="M604.8,372.6l20.7,20.7c0.8,0.8,2.2,0.8,3.1,0L732.9,289c0.8-0.8,0.8-2.2,0-3.1l-20.7-20.7
			c-0.8-0.8-2.2-0.8-3.1,0L604.8,369.5C604,370.4,604,371.8,604.8,372.6z"/>
		<g>
			<path fill="#9F9F9F" d="M606.3,370.8l19.1,19.1c0.8,0.8,2.2,0.8,3.1,0l102.7-102.7c0.8-0.8,0.8-2.2,0-3.1l-19.1-19.1
				c-0.8-0.8-2.2-0.8-3.1,0L606.3,367.7C605.5,368.6,605.5,370,606.3,370.8z"/>
		</g>
	</g>
	<circle fill="#222121" cx="680.8" cy="304.7" r="5.3"/>
	<circle fill="#222121" cx="691.5" cy="315.4" r="5.3"/>
	<path fill="#222121" d="M705.4,278c-6.9,0-12.6,5.6-12.6,12.6c0,6.9,5.6,12.6,12.6,12.6s12.6-5.6,12.6-12.6
		C718,283.6,712.3,278,705.4,278z M705.4,297.2c-3.7,0-6.7-3-6.7-6.7c0-3.7,3-6.7,6.7-6.7s6.7,3,6.7,6.7
		C712,294.2,709.1,297.2,705.4,297.2z"/>
</g>
<g id="grapefruit">
	<circle fill="#F6F2BC" stroke="#EFE45E" stroke-width="1.8516" stroke-miterlimit="10" cx="137.4" cy="317.8" r="42.2"/>
	<path fill="#EC5650" stroke="#ECA697" stroke-width="0.8954" stroke-miterlimit="10" d="M162.7,341.8c0,0-3,17.1-17.9,10.9
		l-6.2-25.4c0,0,4.1-1.2,5.7-4.3L162.7,341.8z"/>
	<path fill="#EC5650" stroke="#ECA697" stroke-width="0.8954" stroke-miterlimit="10" d="M143.9,352.5c0,0-9.5,11.8-18.6-1.5
		l8.6-24.7c0,0,1.7,2.1,4.7,0.4L143.9,352.5z"/>
	<path fill="#EC5650" stroke="#ECA697" stroke-width="0.8954" stroke-miterlimit="10" d="M124.5,350.7c0,0-16.5,1.8-15.6-14.4
		l22-14.3c0,0,1.8,4.5,5.3,5L124.5,350.7z"/>
	<path fill="#EC5650" stroke="#ECA697" stroke-width="0.8954" stroke-miterlimit="10" d="M108.5,335.6c0,0-14.5-4.6-5.3-17.9
		l26.2-0.9c0,0-1.4,2.3,1.3,4.5L108.5,335.6z"/>
	<path fill="#EC5650" stroke="#ECA697" stroke-width="0.8954" stroke-miterlimit="10" d="M103.3,317.8c0,0-10-11.4,4.7-18l22.9,12.7
		c0,0-2.4,1.3-1.2,4.6L103.3,317.8z"/>
	<path fill="#EC5650" stroke="#ECA697" stroke-width="0.8954" stroke-miterlimit="10" d="M108.4,299.2c0,0-2.3-15,13.7-12.6
		l12.3,23.1c0,0-2.7-0.2-3.5,3.2L108.4,299.2z"/>
	<path fill="#EC5650" stroke="#ECA697" stroke-width="0.8954" stroke-miterlimit="10" d="M122.5,286.3c0,0,5.8-14,18.3-3.6
		l-1.5,26.1c0,0-2.2-1.6-4.6,0.9L122.5,286.3z"/>
	<path fill="#EC5650" stroke="#ECA697" stroke-width="0.8954" stroke-miterlimit="10" d="M141,282.6c0,0,12.5-8.6,17.4,6.8
		L143,310.6c0,0-1-2.5-4.4-1.7L141,282.6z"/>
	<path fill="#EC5650" stroke="#ECA697" stroke-width="0.8954" stroke-miterlimit="10" d="M158.8,289.4c0,0,15.1-0.9,11.3,14.9
		l-24.2,10.1c0,0,0.5-2.7-2.9-3.8L158.8,289.4z"/>
	<path fill="#EC5650" stroke="#ECA697" stroke-width="0.8954" stroke-miterlimit="10" d="M170.2,304.4c0,0,13.4,7,2.1,18.5
		l-25.9-3.7c0,0,1.8-2-0.5-4.7L170.2,304.4z"/>
	<path fill="#EC5650" stroke="#ECA697" stroke-width="0.8954" stroke-miterlimit="10" d="M172.3,322.9c0,0,6.2,14.7-9.5,18.8
		l-20.4-16.4c0,0,4.3-2.7,3.7-6.1L172.3,322.9z"/>
	<ellipse fill="#F6F2BC" stroke="#EBA596" stroke-width="1.8516" stroke-miterlimit="10" cx="138" cy="317.8" rx="8.5" ry="9"/>
</g>
<g id="flower">
	<path fill="#B06CA8" d="M158.4,113.5c0,0-6.4-21.2-51-2.5c-1.4,0.6-1,2.6,0.5,2.6c9.7,0,28.1-0.5,35.5-4.6c0,0-39.2,4.7-43.7,15.4
		c-0.2,0.5-0.1,1.2,0.3,1.5c3.5,3.1,21.1,17.1,49.3,4.8c0,0-31.5,1.9-41.7,9.9c-0.9,0.7-0.6,2.2,0.5,2.4
		c10.1,2.3,48.9,9.1,51.3-21.7C159.6,121.3,161.9,117.4,158.4,113.5z"/>
	<path fill="#C392C0" d="M173.6,109.6c0,0-7.8-25.9-62.8-2.1c-1.1,0.5-0.8,2.2,0.4,2.2c10.7,0.1,35.1-0.2,44.5-5.5
		c0,0-47.8,5.8-52.1,18.7c-0.1,0.4,0,0.8,0.3,1.1c3.4,3.2,35.8,16.9,58.9,5.9c0,0-39.3,2.3-50.4,12.4c-0.7,0.6-0.4,1.7,0.5,1.9
		c10.2,2.4,58.9,12.1,62-25.3c0-0.1,0.1-0.3,0.1-0.4C175.5,117.8,177.3,113.7,173.6,109.6z"/>
	<path fill="#4E7C45" d="M400.6,82.9c0,0-96.3-15.7-155.4,4c0,0-48.1,10.5-69.5,25c-0.5,0.3-0.8,0.9-0.8,1.5v3.3
		c0,1.3,1.4,2.1,2.5,1.5c10.7-6,55.2-28.9,124.2-33c0,0,46.6-5.8,98.9,4C400.6,89.2,409.2,84.2,400.6,82.9z"/>
	<path fill="#649150" d="M285.9,78.8c0,0-33.2,2.1-61.2,23c0,0-26.4,23.5-49.7,24.3c0,0,20.2,4.5,57.1-22c0,0,49.3-18.3,54.7-17.7
		L285.9,78.8z"/>
	<path fill="#4E7C45" d="M287,86.3c0,0-32.5,7-65.2-5.6c0,0-31.8-15.5-54.4-9.9c0,0,18.2-9.8,60.9,5.8c0,0,52.4,4.3,57.5,2.2
		L287,86.3z"/>
</g>
<g id="spoon">
	<path fill="#BDC0C0" d="M610.9,220c-15.1-16.4-20-29.6-20.6-31.4c3.7-6.1,1.2-15.9-5.3-25.2c-7.8-11.1-19.4-16.4-25.9-11.8
		s-5.5,17.3,2.3,28.4c6.5,9.3,15.2,14.7,22.1,13.4l8,7.8c7,9,14.9,22.5,14.9,22.5c1.4,2,20.1,37.9,20.1,37.9
		c6.6,10.8,13.8,4.9,13.8,4.9c7.7-5.4-0.8-14.5-0.8-14.5C637.8,250.4,610.9,220,610.9,220z"/>
	<path fill="#9A9A9A" d="M557.5,155.6c0.1,0.1-0.8,2.1-0.9,2.3c-0.6,2.2-0.6,4.5-0.3,6.7c0.6,4.9,2.8,9.5,5.5,13.6
		c2.2,3.3,4.7,6.4,7.9,8.8c1.8,1.3,3.7,2.4,5.8,3.3c1.2,0.5,2.4,0.9,3.7,1.2c0.7,0.2,1.4,0.3,2,0.4c0.3,0.1,1.9,0.1,2,0.3
		C583.2,192.2,557.5,155.6,557.5,155.6z"/>
	<path fill="#9A9A9A" d="M613.9,226.1l24.6,27.8c0,0,5,4.2,1.7,10.8"/>
</g>
<g id="fork">
	<path fill="#BDC0C0" d="M245.6,173.4l-1.4-0.2l-4.8,32.1c0,0-1.6,1.1-2.6-0.4l3.9-32.3l-1.1-0.2l-5.3,32c0,0-1.6,1.2-2.6-0.4
		l4.5-32.2l-1.8-0.3l-5.3,32c0,0-1.6,1.3-2.6-0.4l4.6-32.1l-1.4-0.2l-7,39.5c0,0-1.2,4.3,3.2,8.4c0,0,2.9,2.7,1.3,10.8
		c-1.3,6.5-2.6,13.1-3.9,19.6c-1.9,9.6-3.5,19.5-6.5,28.8c-2.3,7.4-5.3,14.7-7.3,22.2c-1,3.6-2.2,7.6-1.4,11.4
		c0.9,4.5,5.7,7.2,10.2,7.3c14.3,0.3,9.1-21.3,9-34.9c-0.1-5.5-0.5-10.8-0.2-16.2c0.5-9.6,1.1-19.3,2.1-28.9c0.5-4.7,1-9.2,2.9-13.6
		c0.9-2,2.2-4.6,4.3-5.6c0,0,4.9-2.5,5-7.7L245.6,173.4z"/>
	<path fill="#9A9A9A" d="M225.4,283.3c0,0,6.5,40.7-8.4,32.5C217,315.8,224.4,309.8,225.4,283.3z"/>
	<path fill="#9A9A9A" d="M240.7,208.5c0,0,0.6,9.5-6.9,11.3c-0.2,0.1-0.5,0.1-0.7,0.1l-1.7-0.3C231.4,219.5,238.8,214.4,240.7,208.5
		z"/>
</g>
</svg>
